<svg xmlns="http://www.w3.org/2000/svg" xmlns:xlink="http://www.w3.org/1999/xlink" viewBox="0 0 200 200"><defs><style>.cls-1{fill:none;}.cls-2{isolation:isolate;}.cls-3{clip-path:url(#clip-path);}.cls-215,.cls-4{fill:#931f38;}.cls-115,.cls-192,.cls-5{mix-blend-mode:multiply;}.cls-213,.cls-6{fill:#fff;}.cls-6{opacity:0;}.cls-7{fill:#fcf9f9;}.cls-116,.cls-43,.cls-7,.cls-79{opacity:0.03;}.cls-8{fill:#f9f3f4;}.cls-117,.cls-44,.cls-8,.cls-80{opacity:0.06;}.cls-9{fill:#f6ecee;}.cls-118,.cls-45,.cls-81,.cls-9{opacity:0.08;}.cls-10{fill:#f3e6e9;}.cls-10,.cls-119,.cls-46,.cls-82{opacity:0.11;}.cls-11{fill:#f0e0e3;}.cls-11,.cls-120,.cls-47,.cls-83{opacity:0.14;}.cls-12{fill:#eddade;}.cls-12,.cls-121,.cls-48,.cls-84{opacity:0.17;}.cls-13{fill:#ead3d8;}.cls-122,.cls-13,.cls-49,.cls-85{opacity:0.19;}.cls-14{fill:#e7cdd3;}.cls-123,.cls-14,.cls-50,.cls-86{opacity:0.22;}.cls-15{fill:#e4c7cd;}.cls-124,.cls-15,.cls-51,.cls-87{opacity:0.25;}.cls-16{fill:#e1c1c8;}.cls-125,.cls-16,.cls-52,.cls-88{opacity:0.28;}.cls-17{fill:#debbc2;}.cls-126,.cls-17,.cls-53,.cls-89{opacity:0.31;}.cls-18{fill:#dbb4bd;}.cls-127,.cls-18,.cls-54,.cls-90{opacity:0.33;}.cls-19{fill:#d8aeb7;}.cls-128,.cls-19,.cls-55,.cls-91{opacity:0.36;}.cls-20{fill:#d5a8b2;}.cls-129,.cls-20,.cls-56,.cls-92{opacity:0.39;}.cls-21{fill:#d2a2ac;}.cls-130,.cls-21,.cls-57,.cls-93{opacity:0.42;}.cls-22{fill:#cf9ba7;}.cls-131,.cls-22,.cls-58,.cls-94{opacity:0.44;}.cls-23{fill:#cc95a1;}.cls-132,.cls-23,.cls-59,.cls-95{opacity:0.47;}.cls-24{fill:#c98f9c;}.cls-133,.cls-24,.cls-60,.cls-96{opacity:0.5;}.cls-25{fill:#c68996;}.cls-134,.cls-25,.cls-61,.cls-97{opacity:0.53;}.cls-26{fill:#c38390;}.cls-135,.cls-26,.cls-62,.cls-98{opacity:0.56;}.cls-27{fill:#c07c8b;}.cls-136,.cls-27,.cls-63,.cls-99{opacity:0.58;}.cls-28{fill:#bd7685;}.cls-100,.cls-137,.cls-28,.cls-64{opacity:0.61;}.cls-29{fill:#ba7080;}.cls-101,.cls-138,.cls-29,.cls-65{opacity:0.64;}.cls-30{fill:#b76a7a;}.cls-102,.cls-139,.cls-30,.cls-66{opacity:0.67;}.cls-31{fill:#b46375;}.cls-103,.cls-140,.cls-31,.cls-67{opacity:0.69;}.cls-32{fill:#b15d6f;}.cls-104,.cls-141,.cls-32,.cls-68{opacity:0.72;}.cls-33{fill:#ae576a;}.cls-105,.cls-142,.cls-33,.cls-69{opacity:0.75;}.cls-34{fill:#ab5164;}.cls-106,.cls-143,.cls-34,.cls-70{opacity:0.78;}.cls-35{fill:#a84b5f;}.cls-107,.cls-144,.cls-35,.cls-71{opacity:0.81;}.cls-36{fill:#a54459;}.cls-108,.cls-145,.cls-36,.cls-72{opacity:0.83;}.cls-37{fill:#a23e54;}.cls-109,.cls-146,.cls-37,.cls-73{opacity:0.86;}.cls-38{fill:#9f384e;}.cls-110,.cls-147,.cls-38,.cls-74{opacity:0.89;}.cls-39{fill:#9c3249;}.cls-111,.cls-148,.cls-39,.cls-75{opacity:0.92;}.cls-40{fill:#992b43;}.cls-112,.cls-149,.cls-40,.cls-76{opacity:0.94;}.cls-41{fill:#96253e;}.cls-113,.cls-150,.cls-41,.cls-77{opacity:0.97;}.cls-42{fill:#c8243e;}.cls-43{fill:#fdf9fa;}.cls-44{fill:#fcf3f4;}.cls-45{fill:#faedef;}.cls-46{fill:#f9e7ea;}.cls-47{fill:#f7e1e4;}.cls-48{fill:#f6dadf;}.cls-49{fill:#f4d4d9;}.cls-50{fill:#f3ced4;}.cls-51{fill:#f1c8cf;}.cls-52{fill:#f0c2c9;}.cls-53{fill:#eebcc4;}.cls-54{fill:#edb6bf;}.cls-55{fill:#ebb0b9;}.cls-56{fill:#eaaab4;}.cls-57{fill:#e8a4af;}.cls-58{fill:#e79ea9;}.cls-59{fill:#e598a4;}.cls-60{fill:#e4929f;}.cls-61{fill:#e28b99;}.cls-62{fill:#e08594;}.cls-63{fill:#df7f8e;}.cls-64{fill:#dd7989;}.cls-65{fill:#dc7384;}.cls-66{fill:#da6d7e;}.cls-67{fill:#d96779;}.cls-68{fill:#d76174;}.cls-69{fill:#d65b6e;}.cls-70{fill:#d45569;}.cls-71{fill:#d34f64;}.cls-72{fill:#d1495e;}.cls-73{fill:#d04259;}.cls-74{fill:#ce3c53;}.cls-75{fill:#cd364e;}.cls-76{fill:#cb3049;}.cls-77{fill:#ca2a43;}.cls-78{fill:#e74548;}.cls-79{fill:#fefafa;}.cls-80{fill:#fef5f5;}.cls-81{fill:#fdeff0;}.cls-82{fill:#fceaeb;}.cls-83{fill:#fce5e6;}.cls-84{fill:#fbe0e0;}.cls-85{fill:#fadbdb;}.cls-86{fill:#fad6d6;}.cls-87{fill:#f9d0d1;}.cls-88{fill:#f8cbcc;}.cls-89{fill:#f8c6c7;}.cls-90{fill:#f7c1c2;}.cls-91{fill:#f6bcbd;}.cls-92{fill:#f6b7b8;}.cls-93{fill:#f5b1b3;}.cls-94{fill:#f4acae;}.cls-95{fill:#f4a7a9;}.cls-96{fill:#f3a2a4;}.cls-97{fill:#f29d9e;}.cls-98{fill:#f29899;}.cls-99{fill:#f19394;}.cls-100{fill:#f08d8f;}.cls-101{fill:#f0888a;}.cls-102{fill:#ef8385;}.cls-103{fill:#ee7e80;}.cls-104{fill:#ee797b;}.cls-105{fill:#ed7476;}.cls-106{fill:#ec6e71;}.cls-107{fill:#ec696c;}.cls-108{fill:#eb6467;}.cls-109{fill:#ea5f61;}.cls-110{fill:#ea5a5c;}.cls-111{fill:#e95557;}.cls-112{fill:#e84f52;}.cls-113{fill:#e84a4d;}.cls-114{fill:#ee8454;}.cls-115{opacity:0.86;}.cls-116{fill:#fffcfa;}.cls-117{fill:#fef8f5;}.cls-118{fill:#fef5f1;}.cls-119{fill:#fdf1ec;}.cls-120{fill:#fdeee7;}.cls-121{fill:#fceae2;}.cls-122{fill:#fce7de;}.cls-123{fill:#fbe4d9;}.cls-124{fill:#fbe0d4;}.cls-125{fill:#faddcf;}.cls-126{fill:#fad9cb;}.cls-127{fill:#f9d6c6;}.cls-128{fill:#f9d3c1;}.cls-129{fill:#f8cfbc;}.cls-130{fill:#f8ccb8;}.cls-131{fill:#f7c8b3;}.cls-132{fill:#f7c5ae;}.cls-133{fill:#f7c2aa;}.cls-134{fill:#f6bea5;}.cls-135{fill:#f6bba0;}.cls-136{fill:#f5b79b;}.cls-137{fill:#f5b497;}.cls-138{fill:#f4b092;}.cls-139{fill:#f4ad8d;}.cls-140{fill:#f3aa88;}.cls-141{fill:#f3a684;}.cls-142{fill:#f2a37f;}.cls-143{fill:#f29f7a;}.cls-144{fill:#f19c75;}.cls-145{fill:#f19971;}.cls-146{fill:#f0956c;}.cls-147{fill:#f09267;}.cls-148{fill:#ef8e62;}.cls-149{fill:#ef8b5e;}.cls-150{fill:#ee8759;}.cls-151{fill:#f5c060;}.cls-152{fill:#fffdfb;opacity:0.02;}.cls-153,.cls-193{fill:#fffcf7;}.cls-153{opacity:0.05;}.cls-154{fill:#fefaf3;opacity:0.07;}.cls-155{fill:#fef9ef;opacity:0.1;}.cls-156{fill:#fef7ec;opacity:0.12;}.cls-157,.cls-195{fill:#fef6e8;}.cls-157{opacity:0.15;}.cls-158{fill:#fdf4e4;opacity:0.17;}.cls-159{fill:#fdf3e0;opacity:0.2;}.cls-160{fill:#fdf1dc;opacity:0.22;}.cls-161{fill:#fdf0d8;opacity:0.24;}.cls-162{fill:#fceed4;opacity:0.27;}.cls-163{fill:#fcedd0;opacity:0.29;}.cls-164{fill:#fcebcd;opacity:0.32;}.cls-165{fill:#fce9c9;opacity:0.34;}.cls-166{fill:#fbe8c5;opacity:0.37;}.cls-167{fill:#fbe6c1;opacity:0.39;}.cls-168{fill:#fbe5bd;opacity:0.41;}.cls-169{fill:#fbe3b9;opacity:0.44;}.cls-170{fill:#fae2b5;opacity:0.46;}.cls-171{fill:#fae0b1;opacity:0.49;}.cls-172{fill:#fadfae;opacity:0.51;}.cls-173{fill:#faddaa;opacity:0.54;}.cls-174{fill:#f9dca6;opacity:0.56;}.cls-175{fill:#f9daa2;opacity:0.59;}.cls-176{fill:#f9d99e;opacity:0.61;}.cls-177{fill:#f9d79a;opacity:0.63;}.cls-178{fill:#f8d696;opacity:0.66;}.cls-179{fill:#f8d492;opacity:0.68;}.cls-180{fill:#f8d28f;opacity:0.71;}.cls-181{fill:#f8d18b;opacity:0.73;}.cls-182{fill:#f7cf87;opacity:0.76;}.cls-183{fill:#f7ce83;opacity:0.78;}.cls-184{fill:#f7cc7f;opacity:0.8;}.cls-185{fill:#f7cb7b;opacity:0.83;}.cls-186,.cls-210{fill:#f6c977;}.cls-186{opacity:0.85;}.cls-187{fill:#f6c873;opacity:0.88;}.cls-188{fill:#f6c670;opacity:0.9;}.cls-189{fill:#f6c56c;opacity:0.93;}.cls-190,.cls-212{fill:#f5c368;}.cls-190{opacity:0.95;}.cls-191{fill:#f5c264;opacity:0.98;}.cls-192{opacity:0.92;}.cls-193{opacity:0.05;}.cls-194{fill:#fef9f0;opacity:0.1;}.cls-195{opacity:0.14;}.cls-196{fill:#fdf3e1;opacity:0.19;}.cls-197{fill:#fdf0d9;opacity:0.24;}.cls-198{fill:#fcedd2;opacity:0.29;}.cls-199{fill:#fceaca;opacity:0.33;}.cls-200{fill:#fbe7c2;opacity:0.38;}.cls-201{fill:#fbe4bb;opacity:0.43;}.cls-202{fill:#fae1b3;opacity:0.48;}.cls-203{fill:#fadeac;opacity:0.52;}.cls-204{fill:#f9dba4;opacity:0.57;}.cls-205{fill:#f9d89d;opacity:0.62;}.cls-206{fill:#f8d595;opacity:0.67;}.cls-207{fill:#f8d28d;opacity:0.71;}.cls-208{fill:#f7cf86;opacity:0.76;}.cls-209{fill:#f7cc7e;opacity:0.81;}.cls-210{opacity:0.86;}.cls-211{fill:#f6c66f;opacity:0.9;}.cls-212{opacity:0.95;}.cls-214{fill:url(#linear-gradient);}.cls-215{font-size:10px;font-family:ProximaNova-Light, Proxima Nova;font-weight:300;}</style><clipPath id="clip-path"><path class="cls-1" d="M44.22,91.64A41,41,0,0,0,84.31,141c21.81-1.34,37.6-19.4,72.33-40.95-34.73-21.55-50.52-39.61-72.33-40.95A41,41,0,0,0,44.22,91.64"/></clipPath><linearGradient id="linear-gradient" x1="74.58" y1="42.25" x2="161.09" y2="42.25" gradientUnits="userSpaceOnUse"><stop offset="0" stop-color="#931f38"/><stop offset="0.5" stop-color="#e74548"/><stop offset="1" stop-color="#f5c060"/></linearGradient></defs><g class="cls-2"><g id="Geospatial_Gradient_Text" data-name="Geospatial Gradient Text"><g class="cls-3"><path class="cls-4" d="M156.64,100c-34.73-21.55-50.52-39.61-72.33-40.95a41,41,0,0,0,0,81.9C106.12,139.61,121.91,121.55,156.64,100Z"/><g class="cls-5"><path class="cls-6" d="M43.36,82c8.76,13.13,19,19.24,16.65,30.73s-4.31,10.38-4.31,19.72S65,147.42,69.71,149c8,2.63,8.22-2.71,4.51-9.3s-8.47-6.38-8.23-16.44c.17-7.18,5.31-13.45,2.8-26.66S60.52,80.44,52.74,73.1C43.23,64.12,38.57,74.85,43.36,82Z"/><path class="cls-7" d="M43.53,81.85c8.93,13.1,19,19.37,16.6,30.88s-4.28,10.44-4.26,19.63S65,147.11,69.72,148.72c7.92,2.65,8.12-2.58,4.4-9.1s-8.41-6.38-8.17-16.3c.17-7.16,5.18-13.34,2.78-26.37s-7.94-16.28-16-23.81C43.34,64.34,38.73,74.81,43.53,81.85Z"/><path class="cls-8" d="M43.69,81.65c9.11,13.07,19,19.51,16.57,31C57.89,124,56,123.18,56.05,132.23s9,14.59,13.69,16.23c7.82,2.7,8-2.45,4.28-8.89s-8.35-6.38-8.12-16.16c.18-7.14,5.06-13.24,2.78-26.08S61.05,80.9,52.74,73.19C43.44,64.56,38.89,74.76,43.69,81.65Z"/><path class="cls-9" d="M43.86,81.46c9.28,13,19,19.64,16.53,31.18-2.36,11.22-4.23,10.56-4.17,19.45s8.8,14.44,13.54,16.12c7.71,2.73,7.89-2.32,4.16-8.7s-8.29-6.37-8.06-16c.17-7.13,4.92-13.14,2.77-25.81S61.31,81.13,52.74,73.24C43.56,64.78,39.05,74.71,43.86,81.46Z"/><path class="cls-10" d="M44,81.27c9.46,13,18.94,19.78,16.49,31.33-2.35,11.12-4.2,10.61-4.11,19.36S65,146.23,69.78,148c7.61,2.76,7.78-2.19,4-8.49s-8.24-6.38-8-15.86c.17-7.1,4.79-13,2.75-25.52s-7-16.72-15.83-24.8C43.67,65,39.22,74.66,44,81.27Z"/><path class="cls-11" d="M44.19,81.07c9.64,13,18.91,19.92,16.45,31.48-2.34,11-4.17,10.68-4.06,19.28s8.48,14.1,13.22,15.86c7.51,2.8,7.67-2.05,3.93-8.28s-8.19-6.38-8-15.72c.18-7.08,4.67-12.93,2.75-25.23S61.84,81.59,52.74,73.33,39.39,74.61,44.19,81.07Z"/><path class="cls-12" d="M44.35,80.88c9.83,13,18.89,20.05,16.41,31.63-2.32,10.94-4.14,10.73-4,19.19s8.33,13.93,13.07,15.74c7.41,2.82,7.56-1.93,3.81-8.08s-8.13-6.38-7.9-15.57c.18-7.07,4.53-12.84,2.74-25s-6.36-17-15.73-25.46C43.9,65.42,39.55,74.56,44.35,80.88Z"/><path class="cls-13" d="M44.52,80.69c10,12.91,18.86,20.18,16.37,31.77-2.31,10.86-4.12,10.8-4,19.11s8.17,13.76,12.91,15.61c7.31,2.86,7.45-1.79,3.69-7.88s-8.07-6.37-7.85-15.42c.18-7,4.41-12.73,2.73-24.66s-6-17.18-15.67-25.8C44,65.63,39.73,74.51,44.52,80.69Z"/><path class="cls-14" d="M44.68,80.5C54.88,93.38,63.52,100.82,61,112.42c-2.3,10.76-4.09,10.85-3.92,19s8,13.6,12.76,15.5c7.21,2.88,7.34-1.66,3.58-7.68s-8-6.37-7.8-15.28c.18-7,4.28-12.63,2.72-24.37S62.65,82.27,52.74,73.47C44.14,65.83,39.9,74.45,44.68,80.5Z"/><path class="cls-15" d="M44.85,80.3c10.39,12.85,18.81,20.46,16.29,32.07-2.28,10.67-4.06,10.92-3.86,18.93.23,8.17,7.87,13.43,12.6,15.37,7.1,2.91,7.23-1.53,3.46-7.47s-8-6.37-7.75-15.14c.19-7,4.16-12.52,2.72-24.08S62.92,82.49,52.74,73.52C44.26,66,40.07,74.4,44.85,80.3Z"/><path class="cls-16" d="M45,80.11C55.6,92.92,63.8,100.7,61.27,112.33c-2.28,10.58-4,11-3.81,18.84.25,8,7.71,13.26,12.43,15.24,7,2.94,7.13-1.39,3.35-7.27s-7.91-6.36-7.69-15c.18-7,4-12.43,2.71-23.8s-5.07-17.64-15.52-26.8C44.39,66.24,40.25,74.34,45,80.11Z"/><path class="cls-17" d="M45.18,79.92C56,92.69,63.94,100.64,61.4,112.28c-2.27,10.49-4,11-3.77,18.76.27,7.91,7.56,13.09,12.28,15.12,6.91,3,7-1.27,3.23-7.07s-7.85-6.36-7.63-14.84c.18-7,3.89-12.32,2.69-23.51s-4.74-17.8-15.46-27.13C44.51,66.44,40.43,74.29,45.18,79.92Z"/><path class="cls-18" d="M45.34,79.72c11,12.74,18.74,20.87,16.18,32.52-2.25,10.4-4,11.1-3.71,18.67.29,7.78,7.4,12.92,12.12,15,6.81,3,6.9-1.13,3.11-6.86s-7.79-6.36-7.58-14.7c.19-7,3.77-12.22,2.69-23.22s-4.42-18-15.41-27.46C44.64,66.65,40.61,74.23,45.34,79.72Z"/><path class="cls-19" d="M45.51,79.53c11.19,12.7,18.71,21,16.14,32.67-2.24,10.3-4,11.15-3.67,18.57.32,7.66,7.25,12.76,12,14.87,6.71,3,6.81-1,3-6.66s-7.74-6.35-7.53-14.55c.18-6.92,3.63-12.11,2.68-22.93S64,83.39,52.74,73.7C44.77,66.85,40.79,74.17,45.51,79.53Z"/><path class="cls-20" d="M45.68,79.34C57.07,92,64.36,100.47,61.78,112.15c-2.23,10.21-4,11.22-3.62,18.49.34,7.53,7.09,12.59,11.81,14.75,6.61,3,6.69-.88,2.88-6.46s-7.69-6.36-7.48-14.4c.19-6.91,3.51-12,2.67-22.65s-3.76-18.27-15.3-28.13C44.9,67,41,74.11,45.68,79.34Z"/><path class="cls-21" d="M45.84,79.15c11.61,12.61,18.66,21.26,16.06,33-2.21,10.12-3.91,11.27-3.56,18.4.36,7.4,6.94,12.41,11.65,14.62,6.51,3.06,6.58-.74,2.76-6.25-3.92-5.66-7.63-6.36-7.42-14.26.19-6.89,3.38-11.91,2.66-22.36S64.55,83.83,52.74,73.8C45,67.24,41.15,74.05,45.84,79.15Z"/><path class="cls-22" d="M46,79c11.81,12.58,18.63,21.4,16,33.11-2.21,10-3.89,11.34-3.52,18.32.39,7.26,6.79,12.24,11.5,14.5,6.41,3.07,6.47-.62,2.64-6.06-3.93-5.59-7.57-6.35-7.37-14.11.19-6.87,3.25-11.81,2.66-22.08s-3.11-18.58-15.2-28.79C45.16,67.44,41.34,74,46,79Z"/><path class="cls-23" d="M46.17,78.76c12,12.53,18.61,21.54,16,33.26-2.2,9.94-3.87,11.39-3.47,18.23.41,7.13,6.63,12.07,11.34,14.37,6.31,3.1,6.36-.48,2.53-5.85-4-5.53-7.52-6.35-7.32-14,.19-6.84,3.12-11.7,2.64-21.79S65.1,84.26,52.74,73.89C45.29,67.63,41.53,73.92,46.17,78.76Z"/><path class="cls-24" d="M46.34,78.57C58.59,91,64.92,100.24,62.28,112c-2.18,9.85-3.83,11.46-3.41,18.14.44,7,6.47,11.9,11.17,14.25,6.23,3.12,6.26-.34,2.42-5.64-4-5.48-7.46-6.35-7.26-13.82.19-6.83,3-11.61,2.63-21.51S65.38,84.48,52.74,73.94C45.42,67.83,41.71,73.86,46.34,78.57Z"/><path class="cls-25" d="M46.5,78.37C59,90.8,65.06,100.18,62.41,111.93c-2.17,9.75-3.81,11.51-3.37,18,.47,6.88,6.33,11.72,11,14.13,6.13,3.13,6.15-.22,2.3-5.45-4-5.41-7.41-6.34-7.21-13.67.19-6.81,2.87-11.5,2.63-21.22S65.66,84.69,52.74,74C45.55,68,41.9,73.79,46.5,78.37Z"/><path class="cls-26" d="M46.67,78.18c12.69,12.37,18.53,21.94,15.86,33.71-2.15,9.66-3.78,11.57-3.31,18,.49,6.75,6.17,11.55,10.86,14,6,3.15,6-.08,2.18-5.24-4-5.35-7.35-6.34-7.15-13.53.19-6.79,2.73-11.4,2.61-20.93S65.94,84.91,52.74,74C45.69,68.22,42.09,73.73,46.67,78.18Z"/><path class="cls-27" d="M46.83,78c12.93,12.31,18.5,22.08,15.83,33.85-2.14,9.57-3.75,11.64-3.27,17.88.52,6.62,6,11.37,10.71,13.88,5.93,3.16,5.93,0,2.07-5-4-5.29-7.3-6.34-7.11-13.39.2-6.76,2.61-11.29,2.61-20.64S66.22,85.12,52.74,74.08C45.82,68.41,42.29,73.66,46.83,78Z"/><path class="cls-28" d="M47,77.79C60.15,90,65.47,100,62.79,111.8c-2.14,9.48-3.73,11.69-3.22,17.79.54,6.49,5.87,11.19,10.55,13.75,5.83,3.18,5.82.18,1.95-4.84-4-5.22-7.24-6.33-7-13.23s2.48-11.2,2.6-20.36S66.51,85.33,52.74,74.12C46,68.6,42.48,73.59,47,77.79Z"/><path class="cls-29" d="M47.16,77.6C60.55,89.78,65.61,100,62.91,111.75c-2.12,9.39-3.7,11.76-3.16,17.7.56,6.36,5.71,11,10.39,13.63,5.74,3.2,5.7.31,1.83-4.63-4-5.16-7.19-6.33-7-13.09s2.35-11.09,2.59-20.07-.77-19.76-14.82-31.12C46.09,68.79,42.67,73.52,47.16,77.6Z"/><path class="cls-30" d="M47.33,77.41C61,89.52,65.75,99.89,63,111.71c-2.11,9.29-3.67,11.81-3.12,17.61.6,6.23,5.57,10.85,10.24,13.51,5.64,3.21,5.59.44,1.71-4.43-4.05-5.1-7.13-6.34-6.94-13s2.22-11,2.58-19.78-.43-19.93-14.77-31.45C46.23,69,42.87,73.45,47.33,77.41Z"/><path class="cls-31" d="M47.49,77.22c13.87,12,18.4,22.62,15.68,34.44-2.1,9.21-3.65,11.88-3.07,17.53.62,6.1,5.41,10.67,10.08,13.38,5.55,3.23,5.48.58,1.6-4.23-4.08-5-7.08-6.33-6.9-12.8.2-6.69,2.1-10.88,2.58-19.49s-.09-20.11-14.72-31.79C46.36,69.17,43.06,73.38,47.49,77.22Z"/><path class="cls-32" d="M47.66,77C61.77,89,66,99.78,63.29,111.62c-2.08,9.11-3.61,11.93-3,17.44.65,6,5.27,10.49,9.93,13.26,5.45,3.24,5.37.7,1.48-4-4.09-5-7-6.33-6.84-12.65.2-6.67,2-10.79,2.56-19.21s.26-20.29-14.66-32.12C46.5,69.36,43.26,73.3,47.66,77Z"/><path class="cls-33" d="M47.82,76.83c14.37,11.86,18.35,22.89,15.6,34.75-2.07,9-3.59,12-3,17.35.67,5.84,5.12,10.31,9.76,13.13,5.37,3.25,5.27.84,1.37-3.82-4.1-4.91-7-6.33-6.78-12.51.2-6.65,1.83-10.68,2.55-18.92S68,86.34,52.74,74.36C46.64,69.55,43.46,73.23,47.82,76.83Z"/><path class="cls-34" d="M48,76.64c14.61,11.77,18.32,23,15.56,34.89-2.07,8.93-3.56,12-2.92,17.26.7,5.72,5,10.14,9.6,13,5.27,3.27,5.15,1,1.25-3.62-4.12-4.83-6.91-6.32-6.73-12.36.2-6.63,1.71-10.58,2.55-18.64s1-20.65-14.56-32.78C46.77,69.73,43.66,73.15,48,76.64Z"/><path class="cls-35" d="M48.15,76.44C63,88.12,66.45,99.61,63.67,111.49c-2.05,8.83-3.53,12.11-2.87,17.17.73,5.58,4.82,10,9.45,12.89,5.18,3.28,5,1.11,1.14-3.42-4.15-4.77-6.86-6.32-6.68-12.22.2-6.61,1.58-10.47,2.53-18.35s1.3-20.84-14.5-33.11C46.91,69.92,43.86,73.07,48.15,76.44Z"/><path class="cls-36" d="M48.32,76.25c15.13,11.57,18.27,23.3,15.48,35.19-2,8.75-3.5,12.17-2.82,17.09.75,5.45,4.67,9.77,9.29,12.76,5.09,3.29,4.93,1.24,1-3.21-4.16-4.72-6.8-6.32-6.63-12.07.21-6.59,1.45-10.38,2.53-18.07s1.65-21-14.45-33.44C47.05,70.11,44.06,73,48.32,76.25Z"/><path class="cls-37" d="M48.48,76.06c15.4,11.45,18.25,23.43,15.44,35.34-2,8.65-3.47,12.23-2.77,17,.79,5.32,4.53,9.59,9.14,12.63,5,3.3,4.81,1.38.9-3-4.17-4.65-6.74-6.31-6.57-11.92.2-6.57,1.32-10.27,2.52-17.78s2-21.23-14.4-33.78C47.19,70.29,44.25,72.91,48.48,76.06Z"/><path class="cls-38" d="M48.65,75.87c15.66,11.33,18.22,23.56,15.4,35.48-2,8.57-3.44,12.3-2.72,16.92.81,5.19,4.38,9.4,9,12.51,4.9,3.31,4.7,1.51.78-2.81-4.18-4.59-6.68-6.31-6.52-11.78.21-6.55,1.2-10.17,2.51-17.49s2.37-21.43-14.34-34.11C47.33,70.48,44.45,72.83,48.65,75.87Z"/><path class="cls-39" d="M48.81,75.67C64.75,86.88,67,99.37,64.18,111.31c-2,8.47-3.41,12.35-2.67,16.82.84,5.07,4.23,9.23,8.82,12.39,4.81,3.32,4.59,1.64.67-2.6-4.21-4.53-6.64-6.31-6.47-11.64.21-6.53,1.06-10.06,2.5-17.2s2.73-21.63-14.29-34.45C47.47,70.66,44.65,72.75,48.81,75.67Z"/><path class="cls-40" d="M49,75.48c16.2,11.07,18.17,23.84,15.32,35.78-2,8.38-3.37,12.41-2.62,16.74.88,4.93,4.09,9,8.67,12.27s4.48,1.77.55-2.41c-4.22-4.46-6.58-6.31-6.41-11.48.2-6.51.93-10,2.49-16.92s3.09-21.84-14.24-34.78C47.61,70.85,44.86,72.66,49,75.48Z"/><path class="cls-41" d="M49.14,75.29c16.49,10.93,18.15,24,15.29,35.93-2,8.29-3.35,12.47-2.57,16.65.9,4.8,3.94,8.86,8.51,12.14s4.37,1.9.43-2.2c-4.23-4.4-6.52-6.31-6.36-11.34a67.41,67.41,0,0,1,2.48-16.63c1.68-6.77,3.46-22-14.18-35.11C47.75,71,45.06,72.58,49.14,75.29Z"/><path class="cls-4" d="M49.31,75.09C66.07,85.87,67.43,99.2,64.56,111.18c-2,8.19-3.32,12.52-2.52,16.56.92,4.67,3.79,8.67,8.34,12s4.27,2,.32-2c-4.24-4.34-6.46-6.31-6.3-11.2a59.17,59.17,0,0,1,2.47-16.34c1.8-6.59,3.83-22.27-14.13-35.45C47.89,71.21,45.26,72.49,49.31,75.09Z"/></g><path class="cls-42" d="M34.88,69.76c12.33,1.44,37.24,17.72,28.85,42.39-8,23.71,8.86,32.09,22.75,33.29L115.81,141s34-29,35-29,19.88-14.6,19.88-14.6L127.54,69.76,78,45.88,50.91,53.06Z"/><g class="cls-5"><path class="cls-6" d="M55.48,67.17c15.13,4.47,36.18,23.57,33,31.47S67.34,110,67.07,120.54c-.22,8.62,10.55,22,18.81,24.8s21.86.12,14.12-6.7-29.18-17.17-24-23.15,20.63-8.37,23.19-23.16c2.33-13.52-23.59-26.54-33.88-31.84C59.83,57.68,45.53,64.23,55.48,67.17Z"/><path class="cls-43" d="M55.69,67.09c8.6,2.5,19.26,9.85,26.08,17.09,5.16,5.46,8.24,10.91,6.85,14.35a11.75,11.75,0,0,1-3.45,4.34c-6.22,5.26-17.67,9.25-17.91,17.56-.15,5.15,3.61,11.94,8.41,17.18,3.19,3.49,6.86,6.28,10.15,7.4,8.13,2.75,21.42.31,14.07-6.33a58,58,0,0,0-6.55-4.9c-5.79-3.85-12.67-8.18-16.06-12-2-2.24-2.71-4.32-1.3-6.07,2-2.41,5.51-4.3,9.36-6.54,5.82-3.39,12-7.8,13.68-16.61,1.31-6.83-4.65-13.57-12.19-19.23-7.32-5.48-16.14-10-21.3-12.66-2.59-1.33-7.1-.6-10.15.8C52,63,50.49,65.57,55.69,67.09Z"/><path class="cls-44" d="M55.89,67c8.57,2.45,19.34,9.85,26.11,17,5.13,5.45,8.21,10.89,6.82,14.36a11.66,11.66,0,0,1-3.45,4.35c-6.18,5.26-17.66,9.33-17.92,17.56-.18,5.13,3.54,11.83,8.28,17,3.14,3.43,6.76,6.21,10,7.34,8,2.77,21,.5,14-6a48.12,48.12,0,0,0-6.36-4.82c-5.8-3.8-12.64-8.11-16.06-12-2-2.21-2.71-4.29-1.38-6,1.86-2.44,5.3-4.39,9.14-6.63,5.81-3.38,11.91-7.8,13.75-16.51,1.45-6.82-4.4-13.57-11.88-19.24-7.22-5.44-16-10-21.21-12.69-2.59-1.34-7.05-.65-10.11.66C52.19,63,50.74,65.52,55.89,67Z"/><path class="cls-45" d="M56.1,66.93c8.54,2.4,19.42,9.84,26.13,17,5.1,5.44,8.18,10.86,6.78,14.38a11.6,11.6,0,0,1-3.43,4.36c-6.15,5.25-17.66,9.41-18,17.56-.19,5.1,3.48,11.71,8.16,16.84,3.09,3.39,6.66,6.14,9.9,7.29,7.86,2.77,20.54.7,14-5.59A42.2,42.2,0,0,0,93.5,134c-5.81-3.74-12.6-8-16.06-11.91-1.94-2.18-2.71-4.24-1.45-6,1.76-2.47,5.07-4.5,8.9-6.73C90.7,106,96.74,101.57,98.73,93c1.59-6.82-4.16-13.58-11.58-19.26C80,68.3,71.36,63.73,66,61c-2.6-1.34-7-.69-10.08.53C52.42,62.92,51,65.48,56.1,66.93Z"/><path class="cls-46" d="M56.3,66.85c8.52,2.35,19.5,9.83,26.16,16.94,5.08,5.43,8.15,10.84,6.75,14.39a11.69,11.69,0,0,1-3.42,4.37c-6.13,5.26-17.66,9.49-18,17.56-.21,5.09,3.42,11.59,8,16.68,3,3.34,6.56,6.07,9.78,7.23,7.73,2.78,20.08.91,13.94-5.22a34.77,34.77,0,0,0-6-4.66c-5.82-3.69-12.57-8-16-11.85-1.94-2.15-2.72-4.21-1.53-6,1.65-2.5,4.84-4.59,8.67-6.82,5.79-3.37,11.78-7.79,13.92-16.3,1.72-6.81-3.91-13.6-11.27-19.27-7-5.39-15.63-10-21-12.77-2.6-1.34-7-.74-10,.4C52.64,62.87,51.23,65.43,56.3,66.85Z"/><path class="cls-47" d="M56.51,66.76c8.48,2.31,19.57,9.83,26.18,16.9,5,5.42,8.12,10.82,6.72,14.4A11.71,11.71,0,0,1,86,102.45C79.9,107.7,68.35,112,68,120c-.22,5.06,3.35,11.47,7.9,16.5,3,3.3,6.46,6,9.66,7.18,7.59,2.78,19.61,1.13,13.89-4.85a30.06,30.06,0,0,0-5.79-4.58c-5.84-3.63-12.54-7.91-16.06-11.8-1.92-2.11-2.71-4.16-1.61-5.95,1.56-2.53,4.63-4.7,8.44-6.92,5.79-3.36,11.72-7.79,14-16.2,1.86-6.8-3.67-13.61-11-19.27-6.91-5.37-15.46-10-20.93-12.81-2.61-1.35-6.93-.79-10,.26C52.87,62.82,51.48,65.38,56.51,66.76Z"/><path class="cls-48" d="M56.71,66.68C65.16,69,76.37,76.51,82.92,83.53,88,88.93,91,94.32,89.6,98a11.63,11.63,0,0,1-3.39,4.39c-6.07,5.25-17.64,9.65-18,17.56-.23,5,3.29,11.36,7.77,16.34,2.94,3.24,6.37,5.93,9.54,7.12,7.47,2.79,19.12,1.36,13.85-4.48a25.13,25.13,0,0,0-5.6-4.5c-5.84-3.58-12.5-7.85-16.06-11.74-1.91-2.09-2.71-4.13-1.68-5.93,1.46-2.56,4.4-4.8,8.21-7,5.77-3.35,11.66-7.79,14.09-16.1,2-6.79-3.42-13.61-10.66-19.28-6.82-5.34-15.3-10-20.85-12.85-2.61-1.35-6.88-.83-10,.13C53.1,62.76,51.72,65.34,56.71,66.68Z"/><path class="cls-49" d="M56.92,66.6c8.42,2.23,19.73,9.82,26.23,16.8,5,5.39,8.06,10.77,6.65,14.43a11.55,11.55,0,0,1-3.38,4.41c-6,5.25-17.64,9.73-18,17.56C68.13,124.82,71.6,131,76,136c2.89,3.19,6.26,5.85,9.42,7.06,7.33,2.79,18.59,1.61,13.8-4.11a21.26,21.26,0,0,0-5.41-4.42C88,131,81.36,126.72,77.77,122.82c-1.89-2.06-2.71-4.09-1.75-5.91,1.36-2.59,4.17-4.89,8-7.1,5.77-3.34,11.61-7.78,14.18-16C100.3,87,95,80.19,87.81,74.52c-6.71-5.31-15.12-10-20.75-12.88-2.62-1.36-6.85-.89-9.94,0C53.32,62.71,52,65.29,56.92,66.6Z"/><path class="cls-50" d="M57.12,66.52c8.39,2.19,19.81,9.81,26.25,16.75,5,5.38,8,10.74,6.63,14.45a11.59,11.59,0,0,1-3.37,4.41c-6,5.25-17.64,9.81-18.06,17.56-.28,5,3.15,11.12,7.51,16a26.4,26.4,0,0,0,9.3,7c7.19,2.79,18,1.87,13.76-3.73a17.84,17.84,0,0,0-5.23-4.35c-5.85-3.48-12.43-7.72-16.06-11.63-1.88-2-2.71-4-1.83-5.87,1.27-2.63,4-5,7.75-7.2C89.52,106.59,95.32,102.14,98,94c2.27-6.78-2.94-13.64-10-19.31-6.62-5.27-15-9.94-20.67-12.92-2.63-1.36-6.81-.94-9.9-.14C53.54,62.65,52.21,65.24,57.12,66.52Z"/><path class="cls-51" d="M57.33,66.44c8.36,2.14,19.89,9.8,26.27,16.7,5,5.37,8,10.72,6.59,14.46A11.48,11.48,0,0,1,86.84,102c-6,5.24-17.64,9.88-18.09,17.56-.29,5,3.09,11,7.39,15.83a26.42,26.42,0,0,0,9.18,7c7.06,2.79,18.4,1.34,13.71-3.36-.32-.77-1.8-2.37-5-4.27-5.86-3.43-12.4-7.65-16.06-11.57-1.87-2-2.7-4-1.9-5.85,1.16-2.66,3.73-5.1,7.51-7.28,5.75-3.33,11.5-7.79,14.35-15.8,2.42-6.77-2.7-13.64-9.75-19.32A132.07,132.07,0,0,0,67.57,62c-2.64-1.37-6.78-1-9.87-.28C53.76,62.59,52.46,65.19,57.33,66.44Z"/><path class="cls-52" d="M57.53,66.36c8.33,2.09,20,9.8,26.3,16.65,4.93,5.36,8,10.69,6.56,14.47a11.55,11.55,0,0,1-3.34,4.44c-6,5.25-17.63,10-18.11,17.56-.31,5,3,10.88,7.26,15.66a26.25,26.25,0,0,0,9,6.89c6.93,2.81,18,1.48,13.67-3-.16-.69-1.54-2.28-4.85-4.19-5.86-3.38-12.36-7.59-16.06-11.51-1.85-2-2.7-4-2-5.83,1.07-2.69,3.51-5.19,7.29-7.37,5.74-3.33,11.44-7.79,14.43-15.69,2.56-6.78-2.46-13.66-9.45-19.34a129.13,129.13,0,0,0-20.48-13c-2.64-1.37-6.73-1.05-9.83-.41C54,62.53,52.7,65.15,57.53,66.36Z"/><path class="cls-53" d="M57.74,66.28c8.3,2,20,9.79,26.32,16.6,4.91,5.34,8,10.67,6.53,14.49a11.69,11.69,0,0,1-3.33,4.45c-5.94,5.24-17.63,10-18.13,17.55-.33,4.94,3,10.77,7.13,15.5a26.17,26.17,0,0,0,8.93,6.83c6.8,2.81,17.64,1.61,13.62-2.61,0-.61-1.28-2.18-4.66-4.11-5.86-3.33-12.32-7.52-16.06-11.46-1.84-1.93-2.7-4-2-5.79,1-2.73,3.29-5.3,7-7.47,5.73-3.32,11.4-7.78,14.52-15.59,2.7-6.77-2.22-13.66-9.14-19.34a125.75,125.75,0,0,0-20.4-13c-2.64-1.38-6.69-1.11-9.79-.56C54.2,62.47,53,65.1,57.74,66.28Z"/><path class="cls-54" d="M57.94,66.2c8.27,2,20.13,9.78,26.35,16.55,4.88,5.33,7.92,10.64,6.49,14.5a11.58,11.58,0,0,1-3.31,4.46c-5.91,5.24-17.63,10.13-18.15,17.56-.35,4.92,2.88,10.65,7,15.33a26.19,26.19,0,0,0,8.81,6.77c6.66,2.81,17.25,1.75,13.58-2.24.15-.52-1-2.09-4.48-4-5.86-3.28-12.29-7.46-16-11.4-1.83-1.91-2.71-3.92-2.13-5.77.86-2.77,3.06-5.39,6.82-7.56,5.72-3.31,11.35-7.78,14.6-15.49,2.85-6.76-2-13.67-8.84-19.35a122.54,122.54,0,0,0-20.3-13.07c-2.65-1.38-6.66-1.16-9.76-.69C54.42,62.41,53.19,65.05,57.94,66.2Z"/><path class="cls-55" d="M58.14,66.11c8.25,2,20.21,9.78,26.38,16.51,4.86,5.32,7.89,10.62,6.46,14.52a11.73,11.73,0,0,1-3.3,4.47c-5.88,5.24-17.63,10.2-18.18,17.55-.36,4.9,2.81,10.54,6.88,15.16A26,26,0,0,0,85.06,141c6.54,2.8,16.88,1.88,13.54-1.87.3-.44-.77-2-4.29-3.95-5.87-3.24-12.25-7.39-16-11.34-1.81-1.88-2.71-3.89-2.21-5.74.76-2.81,2.85-5.5,6.59-7.66,5.71-3.3,11.31-7.78,14.69-15.38,3-6.76-1.73-13.68-8.53-19.37a120,120,0,0,0-20.22-13.1c-2.65-1.39-6.62-1.22-9.72-.83C54.64,62.34,53.44,65,58.14,66.11Z"/><path class="cls-56" d="M58.35,66c8.21,1.91,20.28,9.78,26.4,16.46,4.83,5.31,7.86,10.6,6.43,14.53a11.65,11.65,0,0,1-3.29,4.48c-5.85,5.24-17.63,10.29-18.2,17.56-.38,4.87,2.74,10.42,6.75,15A26,26,0,0,0,85,140.71c6.4,2.8,16.49,2,13.49-1.5.46-.35-.51-1.91-4.1-3.86-5.87-3.2-12.21-7.34-16-11.3-1.8-1.85-2.71-3.85-2.28-5.71.66-2.85,2.62-5.6,6.35-7.75,5.71-3.29,11.27-7.77,14.78-15.28,3.15-6.75-1.49-13.68-8.23-19.38A117.85,117.85,0,0,0,68.84,62.79c-2.66-1.39-6.6-1.28-9.69-1C54.86,62.28,53.69,65,58.35,66Z"/><path class="cls-57" d="M58.55,66C66.74,67.81,78.92,75.72,85,82.36c4.8,5.3,7.83,10.57,6.39,14.55a11.48,11.48,0,0,1-3.28,4.49c-5.82,5.23-17.62,10.36-18.21,17.55-.41,4.86,2.67,10.31,6.62,14.82a25.93,25.93,0,0,0,8.44,6.61c6.27,2.8,16.1,2.15,13.44-1.13.62-.27-.25-1.82-3.91-3.78-5.87-3.16-12.17-7.27-16-11.24-1.78-1.82-2.72-3.82-2.36-5.69.56-2.88,2.4-5.69,6.13-7.84,5.7-3.28,11.22-7.77,14.86-15.18,3.3-6.74-1.25-13.69-7.92-19.39A114.75,114.75,0,0,0,69.09,63c-2.66-1.4-6.56-1.35-9.65-1.1C55.08,62.21,53.93,64.9,58.55,66Z"/><path class="cls-58" d="M58.76,65.87c8.15,1.81,20.44,9.76,26.45,16.36C90,87.51,93,92.78,91.57,96.79a11.41,11.41,0,0,1-3.27,4.5c-5.79,5.24-17.61,10.45-18.24,17.56-.42,4.83,2.61,10.18,6.5,14.65a26,26,0,0,0,8.31,6.55c6.14,2.8,15.73,2.29,13.4-.76.78-.19,0-1.73-3.72-3.7-5.87-3.11-12.14-7.21-16-11.18-1.77-1.8-2.72-3.79-2.43-5.66.45-2.93,2.18-5.8,5.89-7.94,5.69-3.27,11.19-7.76,15-15.07,3.45-6.74-1-13.7-7.62-19.41A112.73,112.73,0,0,0,69.35,63.12c-2.68-1.4-6.53-1.4-9.62-1.23C55.29,62.14,54.18,64.85,58.76,65.87Z"/><path class="cls-59" d="M59,65.79c8.13,1.76,20.52,9.75,26.47,16.31,4.76,5.27,7.77,10.52,6.33,14.57a11.37,11.37,0,0,1-3.25,4.52c-5.76,5.23-17.61,10.52-18.26,17.55-.44,4.81,2.54,10.07,6.37,14.49a25.91,25.91,0,0,0,8.19,6.49c6,2.79,15.34,2.42,13.36-.39.92-.1.27-1.64-3.54-3.62-5.87-3.07-12.1-7.15-16-11.13-1.75-1.76-2.72-3.75-2.5-5.63a10.48,10.48,0,0,1,5.66-8,37.53,37.53,0,0,0,15-15c3.61-6.72-.77-13.7-7.32-19.42A109.62,109.62,0,0,0,69.6,63.29c-2.68-1.41-6.49-1.47-9.59-1.37C55.51,62.07,54.42,64.8,59,65.79Z"/><path class="cls-60" d="M59.17,65.71c8.1,1.71,20.6,9.75,26.49,16.27C90.4,87.23,93.4,92.47,92,96.56a11.41,11.41,0,0,1-3.24,4.52c-5.74,5.23-17.61,10.6-18.28,17.55-.46,4.8,2.47,10,6.24,14.32a25.83,25.83,0,0,0,8.07,6.44c5.87,2.79,15,2.56,13.31,0,1.08,0,.53-1.56-3.34-3.55-5.88-3-12.07-7.08-16.06-11.07-1.74-1.74-2.73-3.72-2.58-5.61A10,10,0,0,1,81.51,111,38.76,38.76,0,0,0,96.62,96.16c3.77-6.71-.52-13.71-7-19.42A107,107,0,0,0,69.86,63.45C67.17,62,63.4,61.92,60.3,62,55.73,62,54.67,64.75,59.17,65.71Z"/><path class="cls-61" d="M59.37,65.63c8.07,1.66,20.68,9.74,26.52,16.22,4.71,5.24,7.71,10.46,6.27,14.59A11.5,11.5,0,0,1,88.93,101c-5.71,5.23-17.61,10.68-18.3,17.55-.48,4.77,2.4,9.83,6.11,14.15a25.89,25.89,0,0,0,8,6.38c5.74,2.78,14.57,2.69,13.26.36,1.24.06.79-1.47-3.15-3.47-5.88-3-12-7-16.06-11a7.75,7.75,0,0,1-2.65-5.58,9.6,9.6,0,0,1,5.2-8.22A40.12,40.12,0,0,0,96.48,96.38c3.93-6.71-.28-13.72-6.7-19.44A104.5,104.5,0,0,0,70.11,63.62C67.42,62.2,63.69,62,60.59,62,55.94,61.93,54.92,64.71,59.37,65.63Z"/><path class="cls-62" d="M59.58,65.54c8,1.62,20.75,9.74,26.54,16.18C90.8,87,93.8,92.16,92.35,96.33a11.51,11.51,0,0,1-3.21,4.54c-5.68,5.23-17.61,10.76-18.33,17.55-.5,4.75,2.34,9.72,6,14a25.89,25.89,0,0,0,7.82,6.33c5.62,2.78,14.19,2.83,13.22.73,1.4.14,1-1.38-3-3.39a66.75,66.75,0,0,1-16.06-11,8.05,8.05,0,0,1-2.72-5.55,9.22,9.22,0,0,1,5-8.31A41.56,41.56,0,0,0,96.34,96.59c4.09-6.69,0-13.72-6.39-19.45A102.36,102.36,0,0,0,70.37,63.78C67.67,62.36,64,62.11,60.88,62,56.16,61.85,55.16,64.66,59.58,65.54Z"/><path class="cls-63" d="M59.78,65.46c8,1.57,20.84,9.73,26.57,16.13C91,86.8,94,92,92.55,96.21a11.53,11.53,0,0,1-3.2,4.56C83.7,106,71.74,111.61,71,118.32c-.52,4.73,2.27,9.6,5.86,13.81a25.93,25.93,0,0,0,7.7,6.27c5.48,2.77,13.81,3,13.17,1.1,1.55.22,1.32-1.29-2.77-3.31a66,66,0,0,1-16-10.9,8.41,8.41,0,0,1-2.81-5.52,8.88,8.88,0,0,1,4.74-8.41A43.1,43.1,0,0,0,96.2,96.8c4.25-6.68.2-13.72-6.09-19.46A99.87,99.87,0,0,0,70.62,64c-2.7-1.42-6.35-1.74-9.45-1.91C56.38,61.78,55.41,64.61,59.78,65.46Z"/><path class="cls-64" d="M60,65.38c8,1.52,20.91,9.73,26.59,16.08,4.63,5.2,7.62,10.39,6.17,14.63a11.53,11.53,0,0,1-3.19,4.57c-5.63,5.23-17.61,10.92-18.37,17.55-.54,4.71,2.2,9.48,5.72,13.65a26,26,0,0,0,7.59,6.21c5.35,2.76,13.42,3.1,13.13,1.47,1.7.31,1.57-1.2-2.59-3.23A65.19,65.19,0,0,1,79,125.47a8.78,8.78,0,0,1-2.88-5.5,8.58,8.58,0,0,1,4.5-8.5A44.68,44.68,0,0,0,96.06,97c4.41-6.67.44-13.74-5.78-19.48A97.82,97.82,0,0,0,70.87,64.11c-2.7-1.42-6.31-1.8-9.41-2C56.6,61.7,55.65,64.56,60,65.38Z"/><path class="cls-65" d="M60.19,65.3c8,1.47,21,9.72,26.62,16,4.61,5.19,7.58,10.36,6.13,14.65a11.46,11.46,0,0,1-3.17,4.58c-5.6,5.22-17.61,11-18.4,17.55-.55,4.68,2.15,9.36,5.6,13.47a26,26,0,0,0,7.46,6.15c5.23,2.76,13,3.24,13.09,1.85,1.86.39,1.83-1.12-2.4-3.15a64.43,64.43,0,0,1-16.05-10.79,9.17,9.17,0,0,1-3-5.47,8.33,8.33,0,0,1,4.28-8.59A46.38,46.38,0,0,0,95.92,97.23c4.57-6.65.67-13.74-5.48-19.49A95,95,0,0,0,71.13,64.28c-2.72-1.43-6.28-1.88-9.38-2.18C56.82,61.62,55.9,64.51,60.19,65.3Z"/><path class="cls-66" d="M60.4,65.22c7.92,1.42,21.07,9.71,26.64,16,4.58,5.18,7.55,10.34,6.1,14.66A11.45,11.45,0,0,1,90,100.45c-5.57,5.22-17.62,11.08-18.42,17.55-.58,4.67,2.08,9.25,5.47,13.31a26,26,0,0,0,7.34,6.09c5.1,2.75,12.66,3.38,13,2.22,2,.48,2.1-1-2.21-3.07a64.11,64.11,0,0,1-16-10.73,9.55,9.55,0,0,1-3-5.44c-.43-3.24.39-6.6,4-8.69A48.25,48.25,0,0,0,95.78,97.44c4.74-6.63.91-13.74-5.18-19.5a92.66,92.66,0,0,0-19.22-13.5C68.66,63,65.14,62.49,62,62.13,57,61.53,56.15,64.46,60.4,65.22Z"/><path class="cls-67" d="M60.6,65.14c7.9,1.37,21.15,9.7,26.66,15.93,4.57,5.17,7.53,10.31,6.08,14.68a11.59,11.59,0,0,1-3.15,4.6c-5.54,5.22-17.62,11.15-18.44,17.55-.6,4.64,2,9.12,5.34,13.13a25.79,25.79,0,0,0,7.22,6c5,2.74,12.27,3.51,13,2.59,2.18.56,2.36-.94-2-3a63.59,63.59,0,0,1-16-10.67,10,10,0,0,1-3.1-5.42c-.55-3.27.17-6.7,3.81-8.77a50.75,50.75,0,0,0,15.7-14.15c4.9-6.62,1.15-13.75-4.87-19.51A90.48,90.48,0,0,0,71.64,64.61c-2.73-1.44-6.21-2-9.31-2.45C57.26,61.45,56.39,64.41,60.6,65.14Z"/><path class="cls-68" d="M60.81,65.06c7.86,1.32,21.22,9.7,26.68,15.88,4.54,5.15,7.5,10.29,6,14.69a11.28,11.28,0,0,1-3.13,4.61c-5.52,5.22-17.62,11.24-18.46,17.55-.62,4.62,1.94,9,5.21,13a26.1,26.1,0,0,0,7.09,6c4.85,2.73,11.9,3.65,13,3,2.33.64,2.62-.86-1.83-2.91a62.84,62.84,0,0,1-16-10.62,10.55,10.55,0,0,1-3.18-5.39c-.66-3.31,0-6.79,3.58-8.86a52.77,52.77,0,0,0,15.79-14c5.07-6.6,1.39-13.75-4.57-19.52a87.93,87.93,0,0,0-19-13.58,30.61,30.61,0,0,0-9.27-2.58C57.48,61.37,56.64,64.36,60.81,65.06Z"/><path class="cls-69" d="M61,65c7.84,1.27,21.31,9.69,26.71,15.83,4.51,5.14,7.46,10.26,6,14.71a11.48,11.48,0,0,1-3.12,4.62c-5.49,5.21-17.62,11.31-18.49,17.54-.64,4.61,1.88,8.89,5.09,12.81a26.33,26.33,0,0,0,7,5.92c4.72,2.72,11.51,3.78,12.91,3.34,2.48.72,2.88-.78-1.65-2.84a62.32,62.32,0,0,1-16-10.56A11,11,0,0,1,76.14,121c-.78-3.35-.28-6.9,3.35-9a55.18,55.18,0,0,0,15.87-14C100.6,91.5,97,84.33,91.1,78.55A86.13,86.13,0,0,0,72.15,64.94a32.23,32.23,0,0,0-9.24-2.72C57.7,61.28,56.88,64.31,61,65Z"/><path class="cls-70" d="M61.22,64.89C69,66.12,82.6,74.58,88,80.68c4.49,5.13,7.43,10.24,6,14.72A11.44,11.44,0,0,1,90.81,100c-5.45,5.22-17.61,11.4-18.5,17.55-.66,4.58,1.81,8.77,5,12.63a26.4,26.4,0,0,0,6.85,5.87c4.59,2.71,11.12,3.92,12.86,3.71,2.64.8,3.14-.7-1.46-2.76a61.8,61.8,0,0,1-16-10.5,11.66,11.66,0,0,1-3.33-5.34c-.89-3.38-.49-7,3.12-9a57.57,57.57,0,0,0,16-13.85c5.41-6.56,1.86-13.75-4-19.54A84.21,84.21,0,0,0,72.4,65.1a34.19,34.19,0,0,0-9.2-2.85C57.92,61.19,57.13,64.25,61.22,64.89Z"/><path class="cls-71" d="M61.42,64.81C69.2,66,82.88,74.49,88.18,80.55c4.46,5.12,7.4,10.21,5.94,14.73A11.39,11.39,0,0,1,91,99.93c-5.43,5.21-17.61,11.47-18.52,17.54-.69,4.56,1.74,8.66,4.83,12.47a26.48,26.48,0,0,0,6.73,5.81c4.46,2.7,10.76,3.75,12.81,4.08,2.9.46,3.4-.61-1.27-2.68a61.63,61.63,0,0,1-16-10.45,12.22,12.22,0,0,1-3.4-5.3c-1-3.42-.72-7.1,2.89-9.15a60.44,60.44,0,0,0,16-13.74C100.65,92,97.18,84.75,91.43,79A82.12,82.12,0,0,0,72.66,65.27a37.07,37.07,0,0,0-9.17-3C58.15,61.1,57.38,64.2,61.42,64.81Z"/><path class="cls-72" d="M61.62,64.73c7.76,1.12,21.55,9.68,26.79,15.69,4.44,5.11,7.37,10.18,5.91,14.75a11.43,11.43,0,0,1-3.09,4.65c-5.4,5.21-17.62,11.55-18.55,17.55-.7,4.54,1.68,8.53,4.71,12.29a26.49,26.49,0,0,0,6.6,5.76c4.34,2.68,10.4,3.94,12.77,4.45,3,.66,3.67-.53-1.08-2.6a60.88,60.88,0,0,1-16-10.39,12.68,12.68,0,0,1-3.48-5.28c-1.13-3.45-1-7.2,2.65-9.24A63.5,63.5,0,0,0,94.94,98.72c5.74-6.51,2.34-13.76-3.35-19.57A80,80,0,0,0,72.91,65.43a39.53,39.53,0,0,0-9.13-3.13C58.37,61,57.62,64.15,61.62,64.73Z"/><path class="cls-73" d="M61.83,64.65c7.72,1.07,21.62,9.67,26.81,15.64,4.41,5.09,7.33,10.16,5.87,14.76a11.32,11.32,0,0,1-3.07,4.67c-5.37,5.2-17.62,11.63-18.57,17.54-.72,4.52,1.62,8.42,4.58,12.13a26.75,26.75,0,0,0,6.48,5.7c4.21,2.67,10,4.12,12.72,4.82,3.18.82,3.93-.45-.89-2.51a60.63,60.63,0,0,1-16-10.34,13.4,13.4,0,0,1-3.56-5.26c-1.25-3.48-1.16-7.29,2.43-9.33,5.55-3.15,10.75-7.56,16.21-13.54,5.92-6.48,2.57-13.76-3-19.58A78,78,0,0,0,73.17,65.6a42.48,42.48,0,0,0-9.1-3.27C58.6,60.92,57.87,64.1,61.83,64.65Z"/><path class="cls-74" d="M62,64.57c7.7,1,21.7,9.66,26.84,15.59,4.38,5.08,7.29,10.13,5.84,14.78a11.35,11.35,0,0,1-3.06,4.67c-5.34,5.21-17.62,11.71-18.59,17.55-.75,4.49,1.55,8.29,4.45,12a27.23,27.23,0,0,0,6.36,5.64c4.08,2.66,9.63,4.3,12.68,5.19,3.31,1,4.19-.36-.7-2.43a60,60,0,0,1-16-10.29A14.08,14.08,0,0,1,76.17,122c-1.37-3.52-1.39-7.4,2.19-9.43,5.54-3.15,10.74-7.54,16.3-13.43,6.09-6.46,2.81-13.77-2.74-19.59a75.68,75.68,0,0,0-18.5-13.8,45.71,45.71,0,0,0-9.06-3.4C58.82,60.83,58.12,64.05,62,64.57Z"/><path class="cls-75" d="M62.24,64.49C69.91,65.44,84,74.14,89.1,80c4.36,5.07,7.26,10.11,5.81,14.79a11.38,11.38,0,0,1-3,4.69c-5.32,5.2-17.62,11.79-18.61,17.54-.77,4.47,1.48,8.18,4.32,11.79a27.48,27.48,0,0,0,6.23,5.59c4,2.64,9.25,4.48,12.64,5.56s4.45-.28-.51-2.35a59.9,59.9,0,0,1-16.05-10.23,14.7,14.7,0,0,1-3.7-5.2c-1.49-3.55-1.62-7.5,1.95-9.52,5.54-3.14,10.72-7.51,16.38-13.33,6.27-6.43,3-13.77-2.43-19.6A73.45,73.45,0,0,0,73.67,65.93a49,49,0,0,0-9-3.54C59.05,60.74,58.36,64,62.24,64.49Z"/><path class="cls-76" d="M62.44,64.41c7.64.9,21.86,9.65,26.88,15.49C93.66,85,96.56,90,95.1,94.7a11.24,11.24,0,0,1-3,4.7c-5.29,5.2-17.64,11.87-18.64,17.55-.8,4.45,1.43,8,4.2,11.62a27.55,27.55,0,0,0,6.11,5.53A55.34,55.34,0,0,0,96.33,140c3.6,1.24,4.72-.2-.32-2.27A59.51,59.51,0,0,1,80,127.59a15.77,15.77,0,0,1-3.78-5.17c-1.6-3.58-1.83-7.6,1.73-9.62,5.53-3.13,10.69-7.49,16.46-13.23,6.44-6.4,3.28-13.76-2.12-19.61A72.47,72.47,0,0,0,73.93,66.09a53.74,53.74,0,0,0-9-3.67C59.28,60.64,58.61,63.94,62.44,64.41Z"/><path class="cls-77" d="M62.65,64.33c7.61.85,21.93,9.64,26.9,15.44,4.32,5,7.21,10.06,5.75,14.82a11.43,11.43,0,0,1-3,4.71c-5.26,5.2-17.64,11.94-18.66,17.54-.82,4.43,1.36,7.94,4.07,11.45a27.9,27.9,0,0,0,6,5.48,56,56,0,0,0,12.54,6.3c3.74,1.36,5-.13-.13-2.19a59.64,59.64,0,0,1-16-10.12,16.55,16.55,0,0,1-3.85-5.14c-1.73-3.61-2.06-7.7,1.49-9.71,5.52-3.12,10.67-7.46,16.55-13.12,6.62-6.37,3.52-13.77-1.82-19.63a70.26,70.26,0,0,0-18.23-13.9,58,58,0,0,0-9-3.81C59.51,60.55,58.85,63.89,62.65,64.33Z"/><path class="cls-42" d="M62.85,64.24c7.59.81,22,9.64,26.93,15.4C95.5,86.35,98.72,93,92.49,99.19c-5.24,5.2-17.64,12-18.68,17.54-.84,4.41,1.29,7.83,3.94,11.29,3.35,4.39,10.89,9.27,18.37,12.09,3.88,1.47,5.24,0,0-2.11a58.84,58.84,0,0,1-16-10.06c-4.07-3.49-8.17-11.8-2.66-14.92s10.65-7.43,16.63-13c6.79-6.33,3.75-13.77-1.51-19.64A68.9,68.9,0,0,0,65.51,62.48C59.74,60.45,59.1,63.84,62.85,64.24Z"/></g><path class="cls-78" d="M49.23,61.44c23,2.16,44.23,17.6,46,28.25C97.82,106,66.87,102.6,72.7,120.83c5.07,15.88,35.85,24.81,51.25,26.59l32.69-19.16,7.3-40.71L112.45,55.94l-36.4-4.08Z"/><g class="cls-5"><path class="cls-6" d="M74.27,56.81c8.81,5.83,23.94,20,26.46,28.9,2.76,9.73-10.07,25.16-2.41,34.27s20.68,13.31,28.16,16c8.23,3,5.85-7.14-1.57-12s-18.2-5-19.56-18.2c-.76-7.4,3.2-10.46.83-27.86-1.28-9.38-9-16.37-17.68-22.67C79,48.35,70,54,74.27,56.81Z"/><path class="cls-79" d="M74.67,56.86A101.51,101.51,0,0,1,93.74,74.14c3.48,4.13,6.18,8.22,7.11,11.62s0,7.45-1.27,11.73c-2.41,8.05-6,16.52-1,22.4,7.55,9,20.36,13.14,27.79,15.83,4.2,1.52,5.6-.34,4.94-3.19s-3.07-6.3-6.7-8.69a54.54,54.54,0,0,0-7.57-3.78c-5.62-2.55-10.83-5.56-11.71-14.52a21,21,0,0,1,.25-5.61c.75-4.62,2.28-9.78.53-22.16-1.32-9.3-8.92-16.18-17.51-22.43-.51-.37-1-.7-1.52-1C78.33,49.12,70.57,54.13,74.67,56.86Z"/><path class="cls-80" d="M75.07,56.92A98,98,0,0,1,94,74.19c3.42,4.11,6.07,8.17,7,11.61s0,7.42-1.27,11.7c-2.4,8.13-5.82,16.46-.86,22.3,7.45,8.81,20,13,27.43,15.65,4.19,1.51,5.57-.32,4.83-3.16-.7-2.67-3.15-6.19-6.78-8.56a58.3,58.3,0,0,0-7.53-3.8c-5.57-2.58-10.64-5.71-11.47-14.59a21.25,21.25,0,0,1,.27-5.59c.75-4.62,2.26-9.86.46-22.11-1.35-9.2-8.87-16-17.34-22.17-.5-.37-1-.7-1.5-1C78.58,49.28,70.92,54.14,75.07,56.92Z"/><path class="cls-81" d="M75.48,57A95.85,95.85,0,0,1,94.26,74.24c3.36,4.1,5.95,8.12,6.84,11.61s0,7.37-1.27,11.65c-2.38,8.22-5.66,16.41-.72,22.21,7.34,8.66,19.73,12.82,27.06,15.46,4.2,1.5,5.55-.3,4.72-3.12a16.72,16.72,0,0,0-6.85-8.43,65,65,0,0,0-7.49-3.83c-5.52-2.61-10.47-5.86-11.24-14.66a21.48,21.48,0,0,1,.3-5.57c.76-4.62,2.23-9.92.39-22-1.39-9.12-8.82-15.81-17.17-21.92-.5-.37-1-.69-1.48-1C78.82,49.45,71.28,54.14,75.48,57Z"/><path class="cls-82" d="M75.88,57A93.54,93.54,0,0,1,94.52,74.29c3.3,4.08,5.84,8.07,6.71,11.61.82,3.33,0,7.33-1.27,11.61-2.37,8.29-5.51,16.35-.59,22.11,7.24,8.52,19.41,12.65,26.7,15.27,4.2,1.5,5.52-.27,4.61-3.08a17.29,17.29,0,0,0-6.92-8.3,69.86,69.86,0,0,0-7.46-3.85c-5.47-2.66-10.28-6-11-14.73a21.81,21.81,0,0,1,.32-5.56c.77-4.62,2.21-10,.32-22-1.43-9-8.77-15.63-17-21.68-.49-.36-1-.68-1.47-1C79.07,49.61,71.63,54.15,75.88,57Z"/><path class="cls-83" d="M76.28,57.07A91.5,91.5,0,0,1,94.79,74.33c3.23,4.07,5.71,8,6.56,11.61.79,3.32,0,7.29-1.26,11.58-2.38,8.36-5.36,16.29-.46,22,7.13,8.38,19.1,12.49,26.34,15.08,4.19,1.49,5.49-.24,4.5-3a17.78,17.78,0,0,0-7-8.17,79.84,79.84,0,0,0-7.42-3.87c-5.42-2.7-10.1-6.18-10.76-14.81a22.08,22.08,0,0,1,.34-5.54c.78-4.61,2.18-10,.25-21.9-1.47-9-8.72-15.44-16.84-21.43-.48-.35-1-.68-1.44-1C79.32,49.78,72,54.16,76.28,57.07Z"/><path class="cls-84" d="M76.68,57.12A89,89,0,0,1,95.05,74.38c3.17,4.05,5.6,8,6.43,11.61.75,3.3-.06,7.25-1.26,11.53-2.38,8.45-5.2,16.23-.33,21.92,7,8.22,18.79,12.32,26,14.89,4.19,1.49,5.47-.22,4.39-3a18.39,18.39,0,0,0-7.08-8c-2.29-1.47-4.87-2.6-7.38-3.89-5.37-2.74-9.91-6.34-10.52-14.88a22.46,22.46,0,0,1,.35-5.53c.8-4.61,2.17-10.1.19-21.83C104.31,68.3,97.16,61.9,89.15,56c-.47-.35-1-.68-1.42-1C79.56,49.94,72.34,54.16,76.68,57.12Z"/><path class="cls-85" d="M77.08,57.17A86.4,86.4,0,0,1,95.31,74.43c3.11,4,5.49,7.94,6.29,11.6.72,3.28-.07,7.21-1.26,11.5-2.36,8.53-5,16.17-.18,21.82,6.93,8.07,18.46,12.16,25.61,14.7,4.19,1.49,5.44-.19,4.27-3a18.9,18.9,0,0,0-7.15-7.91c-2.28-1.46-4.84-2.6-7.34-3.91-5.33-2.78-9.73-6.49-10.28-15a22.76,22.76,0,0,1,.37-5.51c.81-4.61,2.14-10.17.12-21.77C104.21,68.26,97.15,62,89.26,56.1c-.47-.34-.94-.66-1.4-1C79.81,50.11,72.7,54.17,77.08,57.17Z"/><path class="cls-86" d="M77.49,57.22A84.47,84.47,0,0,1,95.57,74.47c3.06,4,5.38,7.9,6.16,11.61.68,3.26-.09,7.17-1.26,11.45-2.35,8.61-4.89,16.12,0,21.73,6.83,7.92,18.15,12,25.25,14.51,4.19,1.48,5.41-.16,4.16-2.92a19.69,19.69,0,0,0-7.23-7.78c-2.27-1.44-4.82-2.6-7.3-3.93-5.28-2.82-9.54-6.65-10-15a23.11,23.11,0,0,1,.39-5.5c.82-4.6,2.12-10.23,0-21.7C104.12,68.23,97.14,62,89.37,56.23c-.46-.34-.93-.66-1.39-.95C80.05,50.27,73.05,54.17,77.49,57.22Z"/><path class="cls-87" d="M77.89,57.27A82.24,82.24,0,0,1,95.83,74.52c3,4,5.27,7.85,6,11.61.65,3.24-.1,7.12-1.25,11.41-2.35,8.69-4.74,16.06.08,21.63,6.73,7.78,17.83,11.83,24.89,14.32,4.18,1.48,5.39-.13,4.05-2.88a20.49,20.49,0,0,0-7.3-7.65c-2.27-1.43-4.8-2.6-7.27-3.95-5.23-2.86-9.35-6.81-9.8-15.11a23,23,0,0,1,.41-5.48c.83-4.6,2.09-10.29,0-21.63-1.62-8.6-8.51-14.7-16.16-20.43-.46-.34-.92-.66-1.37-.94C80.3,50.44,73.41,54.18,77.89,57.27Z"/><path class="cls-88" d="M78.29,57.32a80.08,80.08,0,0,1,17.8,17.25c2.94,4,5.15,7.8,5.89,11.6.62,3.23-.12,7.09-1.26,11.37-2.33,8.77-4.59,16,.22,21.54,6.62,7.63,17.52,11.67,24.53,14.14,4.18,1.46,5.37-.12,3.93-2.85a21.19,21.19,0,0,0-7.37-7.52c-2.26-1.42-4.78-2.59-7.23-4-5.18-2.9-9.17-7-9.56-15.18a23.31,23.31,0,0,1,.43-5.47c.84-4.6,2.07-10.35-.09-21.56-1.66-8.51-8.46-14.52-16-20.18-.45-.34-.89-.65-1.34-.94C80.54,50.6,73.76,54.19,78.29,57.32Z"/><path class="cls-89" d="M78.69,57.37A78,78,0,0,1,96.36,74.61c2.87,4,5,7.76,5.74,11.61.59,3.2-.13,7-1.25,11.33-2.32,8.85-4.44,16,.35,21.44,6.52,7.49,17.21,11.5,24.16,14,4.19,1.46,5.36-.09,3.83-2.81a22.11,22.11,0,0,0-7.45-7.39c-2.25-1.41-4.75-2.59-7.19-4-5.13-2.94-9-7.13-9.33-15.26a24.24,24.24,0,0,1,.46-5.45c.85-4.59,2-10.41-.16-21.49-1.7-8.43-8.41-14.34-15.83-19.94q-.66-.49-1.32-.93C80.79,50.77,74.12,54.19,78.69,57.37Z"/><path class="cls-90" d="M79.09,57.43A75.86,75.86,0,0,1,96.62,74.66c2.81,4,4.92,7.71,5.61,11.6.56,3.19-.14,7-1.25,11.29-2.31,8.94-4.29,15.9.48,21.35,6.42,7.34,16.89,11.34,23.8,13.76,4.19,1.45,5.34-.06,3.72-2.77a23.14,23.14,0,0,0-7.53-7.26c-2.24-1.39-4.73-2.59-7.15-4-5.08-3-8.79-7.29-9.09-15.33a23.92,23.92,0,0,1,.48-5.43c.85-4.6,2-10.49-.23-21.44-1.74-8.33-8.36-14.15-15.66-19.68-.44-.33-.87-.64-1.3-.92C81,50.93,74.47,54.2,79.09,57.43Z"/><path class="cls-91" d="M79.5,57.48A73.88,73.88,0,0,1,96.88,74.71c2.76,3.94,4.81,7.66,5.47,11.6.53,3.17-.15,7-1.25,11.25-2.29,9-4.13,15.84.63,21.26C108,126,118.3,130,125.16,132.38c4.18,1.45,5.32,0,3.6-2.73a24.3,24.3,0,0,0-7.59-7.13c-2.25-1.38-4.71-2.59-7.12-4-5-3-8.6-7.45-8.85-15.41a24.28,24.28,0,0,1,.5-5.41c.86-4.6,2-10.55-.3-21.37-1.77-8.25-8.3-14-15.49-19.43-.43-.33-.86-.63-1.29-.92C81.28,51.1,74.83,54.2,79.5,57.48Z"/><path class="cls-92" d="M79.9,57.53A72.11,72.11,0,0,1,97.14,74.75c2.7,3.93,4.71,7.62,5.34,11.61.49,3.14-.17,6.92-1.25,11.2-2.29,9.1-4,15.79.76,21.17,6.2,7,16.25,11,23.07,13.37,4.18,1.45,5.3,0,3.49-2.69a25.49,25.49,0,0,0-7.67-7c-2.24-1.37-4.69-2.58-7.08-4-5-3.06-8.42-7.6-8.61-15.48a25.4,25.4,0,0,1,.51-5.4c.88-4.59,2-10.61-.36-21.3C103.53,68,97.09,62.4,90,57q-.63-.48-1.26-.9C81.53,51.26,75.18,54.21,79.9,57.53Z"/><path class="cls-93" d="M80.3,57.58A70.1,70.1,0,0,1,97.4,74.8c2.64,3.91,4.6,7.57,5.2,11.6.47,3.13-.18,6.88-1.24,11.17-2.28,9.18-3.83,15.73.89,21.07,6.1,6.9,15.94,10.84,22.71,13.18,4.18,1.44,5.28,0,3.38-2.65a27.1,27.1,0,0,0-7.75-6.87c-2.23-1.36-4.66-2.58-7-4.07-4.94-3.1-8.23-7.76-8.37-15.56a25.23,25.23,0,0,1,.53-5.38c.89-4.59,2-10.67-.43-21.23-1.85-8.08-8.2-13.6-15.16-18.94-.41-.32-.83-.62-1.24-.9C81.77,51.42,75.54,54.21,80.3,57.58Z"/><path class="cls-94" d="M80.7,57.63a68,68,0,0,1,17,17.22c2.59,3.89,4.49,7.52,5.07,11.6.44,3.11-.2,6.84-1.25,11.13-2.26,9.25-3.67,15.67,1,21,6,6.75,15.63,10.67,22.35,13,4.18,1.44,5.27,0,3.27-2.61a28.48,28.48,0,0,0-7.83-6.74c-2.22-1.34-4.64-2.58-7-4.09-4.89-3.14-8-7.92-8.13-15.63a25.68,25.68,0,0,1,.55-5.37c.9-4.59,1.92-10.74-.5-21.16-1.89-8-8.15-13.42-15-18.69-.41-.32-.82-.61-1.22-.89C82,51.59,75.89,54.22,80.7,57.63Z"/><path class="cls-95" d="M81.11,57.68A66.87,66.87,0,0,1,97.93,74.89c2.52,3.88,4.37,7.47,4.92,11.6.41,3.09-.2,6.8-1.24,11.09-2.25,9.34-3.52,15.62,1.16,20.88,5.89,6.61,15.31,10.51,22,12.81,4.17,1.42,5.25.06,3.15-2.58a30.16,30.16,0,0,0-7.9-6.61c-2.21-1.33-4.61-2.57-7-4.11-4.84-3.18-7.85-8.08-7.89-15.71a26.12,26.12,0,0,1,.57-5.35c.91-4.58,1.92-10.8-.57-21.1-1.91-7.9-8.1-13.22-14.82-18.44-.4-.31-.81-.6-1.21-.88C82.26,51.75,76.25,54.23,81.11,57.68Z"/><path class="cls-96" d="M81.51,57.73A64.89,64.89,0,0,1,98.19,74.94c2.46,3.86,4.26,7.42,4.79,11.6.38,3.07-.22,6.76-1.24,11C99.5,107,98.37,113.15,103,118.37c5.78,6.46,15,10.34,21.63,12.62,4.17,1.42,5.24.08,3-2.54a32.06,32.06,0,0,0-8-6.48c-2.21-1.32-4.6-2.57-6.93-4.13-4.79-3.22-7.66-8.24-7.65-15.78a26.6,26.6,0,0,1,.59-5.34c.92-4.58,1.9-10.87-.64-21-1.95-7.82-8-13-14.65-18.19-.4-.31-.79-.6-1.19-.87C82.51,51.92,76.6,54.23,81.51,57.73Z"/><path class="cls-97" d="M81.91,57.78A63.13,63.13,0,0,1,98.45,75c2.41,3.84,4.16,7.37,4.65,11.6.36,3-.23,6.71-1.23,11-2.23,9.5-3.23,15.51,1.43,20.69,5.67,6.32,14.68,10.18,21.25,12.43,4.18,1.41,5.24.1,2.94-2.5a34.53,34.53,0,0,0-8-6.35c-2.2-1.31-4.57-2.57-6.89-4.15-4.75-3.25-7.47-8.4-7.42-15.86a27.84,27.84,0,0,1,.62-5.32c.93-4.58,1.87-10.93-.71-21-2-7.73-8-12.86-14.49-17.94-.39-.31-.77-.6-1.16-.87C82.76,52.08,77,54.24,81.91,57.78Z"/><path class="cls-98" d="M82.31,57.83A61.53,61.53,0,0,1,98.71,75c2.35,3.83,4.05,7.33,4.52,11.6.32,3-.25,6.68-1.24,11-2.21,9.58-3.07,15.45,1.57,20.59,5.56,6.18,14.36,10,20.89,12.24,4.18,1.41,5.22.12,2.82-2.46a36.9,36.9,0,0,0-8.12-6.22c-2.19-1.29-4.55-2.56-6.85-4.17-4.7-3.29-7.28-8.56-7.18-15.93a28.59,28.59,0,0,1,.64-5.31c.94-4.57,1.85-11-.78-20.89C103,67.8,97,62.77,90.66,57.75c-.38-.3-.76-.58-1.14-.85C83,52.25,77.31,54.24,82.31,57.83Z"/><path class="cls-99" d="M82.71,57.88A59.89,59.89,0,0,1,99,75.08c2.3,3.81,4,7.28,4.38,11.6.3,3-.25,6.63-1.23,10.92-2.2,9.67-2.92,15.4,1.7,20.5,5.46,6,14.05,9.85,20.53,12.05,4.17,1.4,5.21.15,2.71-2.42a40,40,0,0,0-8.2-6.09c-2.18-1.28-4.52-2.56-6.81-4.2-4.65-3.32-7.09-8.71-6.94-16a29,29,0,0,1,.65-5.28c1-4.58,1.83-11.06-.84-20.83C102.86,67.77,97,62.84,90.77,57.88c-.38-.3-.75-.58-1.13-.85C83.25,52.41,77.67,54.25,82.71,57.88Z"/><path class="cls-100" d="M83.12,57.94A58.52,58.52,0,0,1,99.24,75.13c2.23,3.79,3.83,7.23,4.24,11.6.27,3-.27,6.59-1.23,10.88-2.19,9.74-2.77,15.34,1.83,20.4,5.35,5.89,13.73,9.69,20.17,11.86,4.17,1.4,5.2.17,2.6-2.38a43.93,43.93,0,0,0-8.27-6,75,75,0,0,1-6.78-4.22c-4.6-3.36-6.9-8.87-6.7-16.07a29.58,29.58,0,0,1,.67-5.27c1-4.57,1.81-11.12-.91-20.77-2.1-7.47-7.84-12.3-14-17.19-.37-.3-.74-.58-1.11-.85C83.49,52.58,78,54.26,83.12,57.94Z"/><path class="cls-101" d="M83.52,58a56.94,56.94,0,0,1,16,17.18c2.18,3.78,3.73,7.19,4.1,11.6a37.84,37.84,0,0,1-1.23,10.84c-2.17,9.83-2.62,15.29,2,20.31,5.25,5.74,13.42,9.52,19.81,11.67,4.17,1.4,5.19.18,2.49-2.34a48.36,48.36,0,0,0-8.35-5.83,65.13,65.13,0,0,1-6.74-4.24c-4.56-3.4-6.7-9-6.46-16.15a30.22,30.22,0,0,1,.69-5.25c1-4.57,1.78-11.19-1-20.7C102.66,67.69,97,63,91,58.14c-.36-.3-.72-.57-1.08-.84C83.74,52.74,78.38,54.26,83.52,58Z"/><path class="cls-102" d="M83.92,58A55.45,55.45,0,0,1,99.76,75.22c2.12,3.76,3.63,7.14,4,11.6a39.53,39.53,0,0,1-1.23,10.8c-2.16,9.91-2.47,15.23,2.1,20.21,5.14,5.6,13.11,9.36,19.45,11.49,4.16,1.38,5.18.19,2.37-2.31a52.67,52.67,0,0,0-8.42-5.7,59.42,59.42,0,0,1-6.7-4.26c-4.51-3.43-6.51-9.18-6.22-16.22a31,31,0,0,1,.71-5.24A39.67,39.67,0,0,0,104.74,75C102.56,67.66,97,63,91.09,58.26L90,57.43C84,52.91,78.73,54.27,83.92,58Z"/><path class="cls-103" d="M84.32,58.09A54.13,54.13,0,0,1,100,75.27c2.07,3.74,3.52,7.09,3.83,11.59a40.41,40.41,0,0,1-1.22,10.76c-2.14,10-2.32,15.18,2.24,20.13,5,5.45,12.78,9.19,19.08,11.29,4.16,1.38,5.18.21,2.26-2.27a58.58,58.58,0,0,0-8.5-5.57,55.37,55.37,0,0,1-6.66-4.28c-4.46-3.47-6.32-9.34-6-16.3a31.88,31.88,0,0,1,.73-5.22,39,39,0,0,0-1.12-20.56C102.46,67.62,97,63.09,91.2,58.39l-1-.82C84.23,53.07,79.09,54.27,84.32,58.09Z"/><path class="cls-104" d="M84.72,58.14a52.59,52.59,0,0,1,15.56,17.17c2,3.73,3.42,7,3.7,11.6a42.1,42.1,0,0,1-1.23,10.72c-2.12,10.07-2.16,15.13,2.38,20,4.92,5.31,12.47,9,18.72,11.1,4.16,1.37,5.17.22,2.15-2.24a67.42,67.42,0,0,0-8.58-5.43,50.11,50.11,0,0,1-6.62-4.3c-4.41-3.51-6.13-9.5-5.75-16.37a33.75,33.75,0,0,1,.76-5.21,38.54,38.54,0,0,0-1.19-20.49c-2.27-7.13-7.63-11.57-13.31-16.2l-1-.82C84.48,53.24,79.45,54.28,84.72,58.14Z"/><path class="cls-105" d="M85.13,58.19a51.32,51.32,0,0,1,15.41,17.17A26.06,26.06,0,0,1,104.1,87a43.73,43.73,0,0,1-1.22,10.68c-2.11,10.15-2,15.07,2.51,19.93,4.81,5.16,12.15,8.86,18.35,10.91,4.17,1.37,5.17.24,2-2.2a78.23,78.23,0,0,0-8.64-5.3,45.8,45.8,0,0,1-6.59-4.32c-4.37-3.55-5.93-9.66-5.51-16.45a33.38,33.38,0,0,1,.78-5.19,37.87,37.87,0,0,0-1.26-20.43c-2.31-7-7.58-11.38-13.14-16l-1-.8C84.72,53.4,79.8,54.29,85.13,58.19Z"/><path class="cls-106" d="M85.53,58.24a50.05,50.05,0,0,1,15.28,17.17A26,26,0,0,1,104.22,87,44.93,44.93,0,0,1,103,97.64c-2.1,10.24-1.87,15,2.64,19.84,4.7,5,11.84,8.69,18,10.72,4.16,1.36,5.16.25,1.93-2.16a89.6,89.6,0,0,0-8.72-5.17,42.1,42.1,0,0,1-6.55-4.34C106,113,104.56,106.71,105,100a34.19,34.19,0,0,1,.8-5.18,37.28,37.28,0,0,0-1.33-20.36c-2.35-7-7.53-11.2-13-15.7l-1-.8C85,53.56,80.16,54.29,85.53,58.24Z"/><path class="cls-107" d="M85.93,58.29a48.94,48.94,0,0,1,15.14,17.16,26,26,0,0,1,3.28,11.6,47.59,47.59,0,0,1-1.21,10.6c-2.09,10.32-1.73,15,2.77,19.74s11.53,8.53,17.63,10.53c4.16,1.36,5.15.26,1.82-2.12-2.2-1.56-5.3-3.09-8.8-5a39.56,39.56,0,0,1-6.51-4.36c-4.28-3.62-5.54-10-5-16.6a38.3,38.3,0,0,1,.81-5.16,36.48,36.48,0,0,0-1.39-20.29c-2.38-6.86-7.48-11-12.81-15.45-.32-.27-.64-.54-1-.79C85.21,53.73,80.51,54.3,85.93,58.29Z"/><path class="cls-108" d="M86.33,58.34c5.94,4.38,11.45,9.9,15,17.16a25.78,25.78,0,0,1,3.14,11.59,49.18,49.18,0,0,1-1.21,10.56c-2.06,10.4-1.57,14.92,2.91,19.65s11.21,8.36,17.27,10.34c4.16,1.35,5.14.27,1.7-2.08-2.24-1.53-5.38-3-8.87-4.91a37.68,37.68,0,0,1-6.47-4.38c-4.23-3.66-5.35-10.14-4.79-16.67a37.76,37.76,0,0,1,.83-5.15,35.89,35.89,0,0,0-1.46-20.22C102,67.45,97,63.4,91.74,59l-.95-.78C85.46,53.89,80.87,54.3,86.33,58.34Z"/><path class="cls-109" d="M86.73,58.39c6,4.4,11.39,9.88,14.86,17.16a25.74,25.74,0,0,1,3,11.59,51,51,0,0,1-1.21,10.52c-2,10.48-1.42,14.86,3,19.55s10.89,8.2,16.9,10.15c4.16,1.35,5.14.28,1.59-2-2.3-1.5-5.46-2.86-8.94-4.78a34.34,34.34,0,0,1-6.44-4.4c-4.18-3.69-5.16-10.29-4.55-16.74a38.63,38.63,0,0,1,.85-5.13,35.27,35.27,0,0,0-1.53-20.16c-2.46-6.69-7.38-10.65-12.47-15l-.93-.77C85.7,54.06,81.22,54.31,86.73,58.39Z"/><path class="cls-110" d="M87.14,58.45c6,4.42,11.32,9.85,14.71,17.14a25.67,25.67,0,0,1,2.87,11.6,52.83,52.83,0,0,1-1.2,10.47c-2,10.57-1.28,14.81,3.18,19.46a41.52,41.52,0,0,0,16.54,10c4.15,1.34,5.13.28,1.48-2-2.35-1.47-5.54-2.75-9-4.64a33.42,33.42,0,0,1-6.4-4.43c-4.14-3.73-5-10.45-4.31-16.82a41.65,41.65,0,0,1,.87-5.11A34.79,34.79,0,0,0,104.26,74c-2.5-6.61-7.32-10.47-12.3-14.71l-.91-.77C86,54.22,81.58,54.31,87.14,58.45Z"/><path class="cls-111" d="M87.54,58.5c6,4.45,11.27,9.83,14.57,17.14a25.67,25.67,0,0,1,2.74,11.59,56,56,0,0,1-1.21,10.44c-2,10.65-1.12,14.76,3.32,19.36a40.74,40.74,0,0,0,16.18,9.78c4.15,1.33,5.12.29,1.37-2-2.4-1.44-5.62-2.64-9.1-4.51a31.36,31.36,0,0,1-6.36-4.45C105,112.12,104.29,105.27,105,99a41,41,0,0,1,.89-5.1,34.18,34.18,0,0,0-1.67-20c-2.54-6.51-7.27-10.27-12.14-14.46l-.88-.76C86.2,54.39,81.93,54.32,87.54,58.5Z"/><path class="cls-112" d="M87.94,58.55c6,4.47,11.22,9.8,14.44,17.14A25.59,25.59,0,0,1,105,87.28a59.07,59.07,0,0,1-1.2,10.39c-2,10.73-1,14.72,3.45,19.27A39.67,39.67,0,0,0,123,126.53c4.15,1.33,5.11.3,1.25-1.93-2.44-1.41-5.7-2.52-9.17-4.38a29.54,29.54,0,0,1-6.32-4.47c-4-3.8-4.57-10.77-3.84-17a44.74,44.74,0,0,1,.92-5.08,33.63,33.63,0,0,0-1.74-20c-2.57-6.43-7.22-10.09-12-14.21l-.87-.75C86.44,54.55,82.29,54.33,87.94,58.55Z"/><path class="cls-113" d="M88.34,58.6c6,4.5,11.17,9.78,14.3,17.13a25.7,25.7,0,0,1,2.46,11.6,63.23,63.23,0,0,1-1.2,10.35c-2,10.81-.84,14.66,3.58,19.17a38.91,38.91,0,0,0,15.45,9.4c4.16,1.32,5.12.3,1.15-1.89-2.5-1.38-5.78-2.41-9.25-4.25a27.91,27.91,0,0,1-6.28-4.49c-4-3.84-4.36-10.93-3.6-17a48.68,48.68,0,0,1,.94-5.07,33,33,0,0,0-1.81-19.89c-2.61-6.34-7.17-9.91-11.8-14l-.85-.75C86.69,54.72,82.64,54.33,88.34,58.6Z"/><path class="cls-78" d="M88.74,58.65c6,4.52,11.11,9.76,14.16,17.13,2.26,5.46,3.33,9.69,1.12,21.91-2,10.89-.68,14.6,3.72,19.07A38.12,38.12,0,0,0,122.83,126c4.15,1.32,5.11.31,1-1.85s-10.1-3.29-15.57-8.63c-5.16-5-4-15.77-2.4-22.17A32.47,32.47,0,0,0,104,73.5c-2.81-6.64-7.67-10.14-12.46-14.45C86.93,54.88,83,54.34,88.74,58.65Z"/></g><path class="cls-114" d="M78,51.27c30.25,20.24,28.18,33,24.79,47.65-4.79,20.72,19.52,27.54,31,32.33l24.9-9.7,6.71-26.34L113.17,45.88Z"/><g class="cls-115"><path class="cls-6" d="M103.48,64.44c7.06,9,23.89,28.84,21.43,34.2s-10,3.34-10.46,9.42c-.37,5.27,11.53,15.37,18.84,19.56s7.3-1.4,1-8.94-15-13.77-9.5-13.41,14.92.36,13.41-7.43-11.07-17.1-18.2-26.9C114,62.72,97.7,57.08,103.48,64.44Z"/><path class="cls-116" d="M103.72,64.51c7,8.94,23.86,28.74,21.48,34.13s-10.11,3.32-10.59,9.3c-.42,5.19,11.39,15.23,18.59,19.41s7.22-1.3,1-8.7-15-13.71-9.53-13.39,14.92.37,13.47-7.36-11.22-17.36-18.26-27C114,62.84,98,57.29,103.72,64.51Z"/><path class="cls-117" d="M104,64.59c7,8.89,23.83,28.63,21.53,34-2.36,5.56-10.2,3.31-10.71,9.19-.47,5.11,11.24,15.09,18.34,19.25s7.13-1.2,1-8.46S119.2,105,124.58,105.24s14.92.39,13.51-7.28-11.37-17.62-18.31-27C113.93,63,98.38,57.49,104,64.59Z"/><path class="cls-118" d="M104.21,64.66c7,8.84,23.8,28.53,21.57,34-2.31,5.66-10.26,3.3-10.84,9.07-.5,5,11.09,15,18.1,19.1s7-1.11,1-8.22S119.18,105,124.5,105.23s14.92.41,13.56-7.21S126.54,80.14,119.7,70.89C113.91,63.08,98.72,57.7,104.21,64.66Z"/><path class="cls-119" d="M104.45,64.73c7,8.8,23.77,28.43,21.63,33.9-2.26,5.75-10.35,3.29-11,9-.54,4.94,11,14.81,17.85,19s7-1,1.06-8-14.85-13.53-9.59-13.33,14.91.42,13.61-7.14-11.68-18.14-18.42-27.21C113.89,63.2,99.07,57.9,104.45,64.73Z"/><path class="cls-120" d="M104.69,64.81c6.93,8.74,23.75,28.32,21.68,33.81-2.21,5.86-10.43,3.28-11.1,8.84-.59,4.86,10.8,14.67,17.6,18.79s6.86-.91,1.08-7.74S119.14,105,124.34,105.2s14.91.44,13.66-7.06-11.83-18.4-18.48-27.29C113.87,63.32,99.41,58.11,104.69,64.81Z"/><path class="cls-121" d="M104.93,64.88c6.91,8.69,23.73,28.23,21.73,33.74-2.15,5.95-10.51,3.27-11.23,8.72-.63,4.78,10.65,14.53,17.36,18.64s6.76-.81,1.1-7.5-14.77-13.41-9.64-13.29,14.91.46,13.72-7-12-18.66-18.53-27.37C113.85,63.44,99.75,58.32,104.93,64.88Z"/><path class="cls-122" d="M105.18,65c6.88,8.65,23.7,28.13,21.78,33.66-2.11,6.06-10.6,3.26-11.37,8.61-.68,4.7,10.51,14.39,17.11,18.49s6.68-.72,1.13-7.26-14.73-13.35-9.66-13.27,14.91.47,13.76-6.92S125.8,79.34,119.35,70.82C113.83,63.56,100.09,58.52,105.18,65Z"/><path class="cls-123" d="M105.42,65c6.85,8.59,23.68,28,21.83,33.58-2,6.16-10.68,3.25-11.5,8.49-.72,4.62,10.37,14.25,16.87,18.33s6.59-.62,1.15-7-14.69-13.29-9.68-13.25,14.91.49,13.81-6.84S125.61,79.14,119.27,70.8C113.81,63.68,100.44,58.73,105.42,65Z"/><path class="cls-124" d="M105.66,65.1c6.81,8.56,23.66,27.93,21.88,33.5-2,6.27-10.75,3.24-11.62,8.38-.77,4.54,10.21,14.11,16.61,18.18s6.51-.52,1.18-6.78-14.65-13.23-9.7-13.23,14.9.51,13.86-6.77-12.43-19.46-18.69-27.6C113.8,63.79,100.76,58.94,105.66,65.1Z"/><path class="cls-125" d="M105.9,65.17c6.79,8.52,23.64,27.84,21.93,33.43-1.94,6.36-10.83,3.23-11.75,8.26-.81,4.46,10.07,14,16.37,18s6.41-.43,1.2-6.54-14.61-13.17-9.72-13.21,14.9.52,13.91-6.7-12.58-19.72-18.75-27.68C113.79,63.91,101.11,59.15,105.9,65.17Z"/><path class="cls-126" d="M106.15,65.25c6.75,8.46,23.61,27.73,22,33.34-1.89,6.47-10.92,3.22-11.89,8.15-.85,4.38,9.93,13.83,16.13,17.87s6.32-.33,1.22-6.3S119,105.2,123.84,105.12s14.9.54,14-6.62-12.73-20-18.8-27.76C113.77,64,101.45,59.36,106.15,65.25Z"/><path class="cls-127" d="M106.39,65.32c6.73,8.42,23.59,27.64,22,33.27-1.83,6.57-11,3.21-12,8-.9,4.3,9.77,13.69,15.87,17.72s6.24-.23,1.25-6.06-14.52-13-9.77-13.17,14.9.56,14-6.55-12.88-20.24-18.85-27.84C113.75,64.15,101.79,59.56,106.39,65.32Z"/><path class="cls-128" d="M106.63,65.39c6.71,8.37,23.58,27.55,22.08,33.2-1.77,6.67-11.08,3.19-12.14,7.91-.94,4.22,9.63,13.55,15.63,17.57s6.14-.14,1.27-5.82-14.48-13-9.79-13.15,14.9.57,14.06-6.48-13-20.5-18.91-27.91C113.73,64.27,102.13,59.77,106.63,65.39Z"/><path class="cls-129" d="M106.87,65.46c6.68,8.33,23.56,27.45,22.13,33.12-1.71,6.78-11.16,3.19-12.27,7.8-1,4.13,9.49,13.41,15.39,17.41s6,0,1.29-5.58S119,105.28,123.6,105.08s14.89.59,14.11-6.4-13.18-20.76-19-28C113.71,64.39,102.47,60,106.87,65.46Z"/><path class="cls-130" d="M107.12,65.54c6.65,8.27,23.54,27.35,22.18,33-1.65,6.88-11.25,3.17-12.4,7.68-1,4,9.33,13.27,15.13,17.26s6,.06,1.32-5.34-14.4-12.87-9.83-13.11,14.89.61,14.16-6.33-13.34-21-19-28.07C113.69,64.51,102.81,60.18,107.12,65.54Z"/><path class="cls-131" d="M107.36,65.61c6.63,8.23,23.53,27.26,22.23,33-1.59,7-11.33,3.17-12.53,7.57-1.08,4,9.19,13.13,14.89,17.11s5.88.15,1.34-5.1-14.36-12.81-9.86-13.09,14.89.62,14.22-6.26-13.49-21.29-19.08-28.15C113.67,64.63,103.15,60.39,107.36,65.61Z"/><path class="cls-132" d="M107.6,65.68c6.6,8.18,23.51,27.17,22.28,32.89-1.52,7.09-11.41,3.16-12.66,7.45-1.12,3.89,9,13,14.64,17s5.79.26,1.37-4.86-14.32-12.75-9.88-13.07,14.89.64,14.26-6.18S124,77.31,118.49,70.63C113.65,64.75,103.5,60.59,107.6,65.68Z"/><path class="cls-133" d="M107.85,65.76c6.57,8.13,23.49,27.07,22.32,32.8-1.46,7.2-11.49,3.15-12.78,7.34-1.18,3.81,8.89,12.85,14.39,16.8s5.7.35,1.39-4.62-14.28-12.69-9.9-13,14.89.66,14.31-6.11-13.79-21.81-19.18-28.3C113.63,64.87,103.84,60.8,107.85,65.76Z"/><path class="cls-134" d="M108.09,65.83c6.54,8.08,23.48,27,22.38,32.73-1.4,7.3-11.58,3.14-12.92,7.22-1.22,3.73,8.75,12.71,14.15,16.65s5.61.44,1.41-4.38-14.24-12.64-9.92-13,14.88.67,14.36-6-14-22.07-19.24-28.38C113.61,65,104.18,61,108.09,65.83Z"/><path class="cls-135" d="M108.33,65.9c6.52,8,23.47,26.88,22.43,32.65-1.33,7.42-11.66,3.13-13,7.11-1.26,3.65,8.6,12.57,13.9,16.49s5.52.55,1.44-4.14-14.2-12.57-9.94-13,14.88.69,14.41-6-14.1-22.33-19.29-28.46C113.59,65.11,104.52,61.21,108.33,65.9Z"/><path class="cls-136" d="M108.57,66c6.5,8,23.46,26.78,22.48,32.57-1.27,7.52-11.75,3.12-13.17,7-1.32,3.57,8.45,12.43,13.65,16.34s5.43.64,1.46-3.9-14.16-12.51-10-13,14.89.71,14.47-5.89-14.25-22.59-19.35-28.54C113.57,65.23,104.86,61.42,108.57,66Z"/><path class="cls-137" d="M108.82,66.05c6.47,7.94,23.44,26.69,22.53,32.5-1.21,7.62-11.84,3.1-13.31,6.87-1.36,3.49,8.31,12.29,13.4,16.19s5.35.74,1.49-3.66-14.12-12.46-10-13,14.88.72,14.51-5.82-14.4-22.85-19.4-28.62C113.55,65.35,105.21,61.62,108.82,66.05Z"/><path class="cls-138" d="M109.06,66.12c6.44,7.89,23.43,26.6,22.58,32.42-1.14,7.73-11.92,3.1-13.44,6.76-1.4,3.41,8.16,12.14,13.16,16s5.25.84,1.51-3.42-14.08-12.39-10-13,14.88.74,14.56-5.74S122.86,76.11,118,70.52C113.53,65.47,105.55,61.83,109.06,66.12Z"/><path class="cls-139" d="M109.3,66.19c6.42,7.84,23.43,26.5,22.63,32.35-1.06,7.83-12,3.08-13.56,6.64-1.46,3.32,8,12,12.91,15.88s5.16.93,1.53-3.18-14-12.33-10-12.93,14.87.76,14.61-5.67-14.71-23.37-19.51-28.77C113.51,65.59,105.89,62,109.3,66.19Z"/><path class="cls-140" d="M109.54,66.27c6.4,7.79,23.42,26.4,22.68,32.26-1,7.94-12.09,3.08-13.69,6.53-1.5,3.24,7.87,11.86,12.66,15.73s5.08,1,1.56-2.94-14-12.28-10-12.91,14.87.77,14.66-5.6-14.87-23.63-19.57-28.85C113.49,65.71,106.23,62.24,109.54,66.27Z"/><path class="cls-141" d="M109.79,66.34c6.37,7.74,23.4,26.31,22.73,32.19-.93,8-12.18,3.06-13.83,6.41-1.55,3.16,7.72,11.72,12.42,15.57s5,1.13,1.58-2.7-14-12.21-10.08-12.89,14.88.79,14.72-5.52-15-23.89-19.62-28.93C113.47,65.83,106.58,62.44,109.79,66.34Z"/><path class="cls-142" d="M110,66.41c6.35,7.69,23.4,26.22,22.78,32.11-.85,8.15-12.26,3.06-14,6.3-1.6,3.08,7.57,11.58,12.17,15.42s4.89,1.22,1.6-2.46-13.91-12.15-10.1-12.87,14.87.81,14.76-5.45-15.17-24.15-19.67-29C113.45,66,106.92,62.65,110,66.41Z"/><path class="cls-143" d="M110.27,66.49c6.32,7.64,23.39,26.12,22.83,32-.78,8.25-12.35,3-14.08,6.18s7.43,11.44,11.92,15.26,4.81,1.33,1.63-2.21-13.87-12.1-10.12-12.85,14.87.82,14.81-5.38-15.32-24.41-19.72-29.09C113.43,66.07,107.26,62.85,110.27,66.49Z"/><path class="cls-144" d="M110.51,66.56c6.3,7.59,23.39,26,22.88,32-.7,8.36-12.43,3-14.21,6.07s7.28,11.3,11.68,15.11,4.72,1.42,1.65-2-13.83-12-10.14-12.84,14.86.84,14.86-5.3-15.48-24.67-19.78-29.17C113.41,66.19,107.61,63.06,110.51,66.56Z"/><path class="cls-145" d="M110.76,66.63c6.27,7.54,23.37,25.93,22.93,31.88-.64,8.47-12.53,3-14.34,5.95s7.13,11.16,11.42,15,4.63,1.51,1.68-1.74-13.79-12-10.16-12.81,14.86.86,14.91-5.23S121.56,74.71,117.36,70.4C113.39,66.32,108,63.26,110.76,66.63Z"/><path class="cls-146" d="M111,66.71c6.25,7.48,23.37,25.83,23,31.8-.56,8.57-12.61,3-14.47,5.83s7,11,11.18,14.8,4.54,1.62,1.7-1.49-13.75-11.92-10.19-12.79,14.87.87,15-5.16-15.79-25.19-19.89-29.32C113.37,66.44,108.29,63.47,111,66.71Z"/><path class="cls-147" d="M111.24,66.78c6.23,7.43,23.37,25.74,23,31.72-.48,8.68-12.7,3-14.6,5.72s6.84,10.88,10.94,14.65,4.45,1.71,1.72-1.25-13.71-11.86-10.21-12.78,14.86.89,15-5.08-15.94-25.45-19.94-29.4C113.34,66.56,108.64,63.67,111.24,66.78Z"/><path class="cls-148" d="M111.49,66.85c6.22,7.37,23.35,25.64,23.08,31.65-.41,8.78-12.8,3-14.73,5.6s6.69,10.74,10.68,14.5,4.36,1.81,1.75-1S118.6,105.79,122,104.83s14.86.91,15.06-5-16.1-25.71-20-29.48S109,63.87,111.49,66.85Z"/><path class="cls-149" d="M111.73,66.92c6.2,7.33,23.35,25.55,23.13,31.57-.33,8.89-12.88,3-14.86,5.49s6.55,10.6,10.44,14.34,4.27,1.91,1.77-.77S118.58,105.81,122,104.82s14.85.92,15.11-4.94-16.26-26-20-29.56S109.33,64.07,111.73,66.92Z"/><path class="cls-150" d="M112,67c6.17,7.27,23.36,25.45,23.18,31.49-.23,9-13,3-15,5.37s6.4,10.46,10.2,14.19,4.18,2,1.79-.53-13.59-11.68-10.27-12.72,14.85.94,15.16-4.86-16.42-26.22-20.11-29.63S109.67,64.28,112,67Z"/><path class="cls-114" d="M112.21,67.07c6.15,7.23,23.35,25.35,23.23,31.41-.16,9.1-13.06,2.94-15.11,5.26s6.25,10.32,9.94,14,4.1,2.1,1.82-.3-13.55-11.61-10.3-12.69,14.86,1,15.22-4.79-16.57-26.48-20.17-29.71S110,64.49,112.21,67.07Z"/></g><path class="cls-151" d="M98.08,55.79c18,14.34,49.7,48.76,31.74,45.89-10-1.61-14.25-.08-7.79,7.9,5.59,6.88,16.65,17.72,25.75,17.72L163.94,100,113.41,53.06Z"/><g class="cls-5"><path class="cls-6" d="M153.17,108.22c-11.76-7.92-26.26-16.54-35.45-23C111.32,80.74,96,71.76,79.88,71A38.82,38.82,0,0,0,54,78.85c-10.26,7.65-10.54,19.47-12,23.43s-3.12,0-2.88-7.24,7-23,15.69-29.77c10.28-8,20.11-10.8,29-10.73,19.93.17,35,14.93,39.15,18,6.07,4.51,30.63,20.65,37.56,26.22C166.06,103.23,157.64,111.24,153.17,108.22Z"/><path class="cls-152" d="M153.26,108c-11.65-7.84-26.25-16.6-35.32-23-6.37-4.45-22-13.67-38-14.35a38.92,38.92,0,0,0-25.92,8C43.93,86.24,43.5,98,42.06,102.06s-3.07,0-2.83-7.06,7-22.88,15.58-29.61c10.16-8,20.1-10.86,29-10.8,19.85.14,35,15,39.32,18.11,6.09,4.49,30.48,20.56,37.41,26.11C166,103.21,157.7,111,153.26,108Z"/><path class="cls-153" d="M153.36,107.82c-11.55-7.76-26.25-16.66-35.21-22.91C111.83,80.5,96,71,80,70.41A39.17,39.17,0,0,0,54,78.5c-9.9,7.51-10.5,19.21-11.94,23.34s-3,.16-2.8-6.88,7-22.74,15.47-29.46c10-7.93,20.09-10.91,29-10.87,19.77.12,35.12,15,39.5,18.19,6.1,4.48,30.33,20.46,37.25,26C166,103.18,157.77,110.78,153.36,107.82Z"/><path class="cls-154" d="M153.45,107.61C142,99.94,127.2,90.91,118.36,84.74c-6.27-4.36-22.31-14-38.32-14.63a39.24,39.24,0,0,0-26,8.22C44.3,85.76,43.54,97.41,42.1,101.62s-3,.26-2.76-6.7c.22-7.13,6.94-22.59,15.36-29.31,9.94-7.89,20.07-11,29-10.94,19.69.09,35.21,15,39.67,18.27,6.13,4.45,30.19,20.36,37.1,25.87C165.91,103.15,157.83,110.55,153.45,107.61Z"/><path class="cls-155" d="M153.55,107.41c-11.35-7.59-26.25-16.76-35-22.83-6.24-4.32-22.5-14.25-38.49-14.78A39.47,39.47,0,0,0,54,78.16C44.48,85.51,43.56,97.1,42.12,101.4s-2.95.37-2.73-6.53c.22-7.1,6.92-22.43,15.26-29.14,9.82-7.86,20.05-11,29-11,19.61.06,35.3,15.07,39.84,18.34,6.15,4.43,30,20.27,37,25.75C165.86,103.13,157.9,110.31,153.55,107.41Z"/><path class="cls-156" d="M153.64,107.21c-11.24-7.5-26.24-16.82-34.85-22.79C112.6,80.14,96.12,70,80.15,69.49A39.63,39.63,0,0,0,54,78c-9.38,7.27-10.45,18.8-11.89,23.19s-2.9.48-2.69-6.35c.21-7.08,6.88-22.28,15.15-29,9.7-7.83,20-11.08,29-11.08,19.53,0,35.39,15.11,40,18.42,6.17,4.41,29.9,20.17,36.81,25.64C165.81,103.1,158,110.08,153.64,107.21Z"/><path class="cls-157" d="M153.74,107C142.6,99.59,127.49,90.14,119,84.26,112.86,80,96.15,69.62,80.2,69.19A39.8,39.8,0,0,0,54,77.82C44.83,85,43.6,96.49,42.16,101s-2.86.58-2.66-6.17c.21-7.06,6.86-22.13,15-28.84,9.58-7.79,20-11.13,29-11.14C103,54.82,119,70,123.73,73.3c6.18,4.4,29.75,20.07,36.65,25.52C165.76,103.08,158,109.85,153.74,107Z"/><path class="cls-158" d="M153.83,106.8c-11-7.33-26.24-16.92-34.61-22.71-6.11-4.19-23-14.83-39-15.21A39.93,39.93,0,0,0,54,77.65c-9,7.11-10.41,18.53-11.85,23.1s-2.82.68-2.62-6c.21-7,6.83-22,14.94-28.68,9.46-7.76,20-11.19,29-11.22,19.37,0,35.57,15.19,40.36,18.57,6.2,4.38,29.6,20,36.5,25.4C165.71,103.05,158.09,109.62,153.83,106.8Z"/><path class="cls-159" d="M153.93,106.6c-10.94-7.25-26.24-17-34.5-22.67-6.06-4.15-23.21-15-39.13-15.35A40,40,0,0,0,54,77.47c-8.85,7-10.39,18.41-11.83,23.06s-2.78.79-2.58-5.82c.2-7,6.78-21.85,14.82-28.53,9.33-7.75,20-11.25,29-11.29,19.29,0,35.65,15.23,40.53,18.65,6.22,4.36,29.46,19.88,36.35,25.29C165.66,103,158.16,109.39,153.93,106.6Z"/><path class="cls-160" d="M154,106.39c-10.84-7.16-26.25-17-34.39-22.62-6-4.11-23.39-15.22-39.28-15.5A40.26,40.26,0,0,0,54,77.3c-8.68,7-10.38,18.27-11.82,23s-2.74.89-2.55-5.65c.2-7,6.76-21.7,14.72-28.37,9.21-7.71,20-11.3,29-11.35,19.21-.07,35.74,15.26,40.7,18.72,6.23,4.34,29.32,19.78,36.2,25.17C165.61,103,158.22,109.16,154,106.39Z"/><path class="cls-161" d="M154.12,106.19c-10.74-7.08-26.23-17.1-34.26-22.58-6-4.08-23.57-15.42-39.45-15.64A40.35,40.35,0,0,0,54,77.13c-8.51,6.87-10.36,18.13-11.8,23s-2.7,1-2.51-5.47c.19-7,6.72-21.55,14.61-28.22,9.09-7.68,19.94-11.35,29-11.42,19.13-.09,35.83,15.3,40.88,18.8,6.24,4.33,29.16,19.68,36.05,25C165.55,103,158.29,108.93,154.12,106.19Z"/><path class="cls-162" d="M154.22,106C143.58,99,128,88.84,120.07,83.44c-5.92-4-23.75-15.61-39.61-15.78A40.47,40.47,0,0,0,54,77C45.7,83.75,43.7,95,42.26,99.87s-2.66,1.1-2.48-5.29c.19-7,6.7-21.4,14.51-28.06,9-7.65,19.92-11.41,29-11.5,19-.11,35.92,15.35,41.05,18.88,6.26,4.31,29,19.59,35.9,24.93C165.5,102.94,158.35,108.7,154.22,106Z"/><path class="cls-163" d="M154.31,105.78c-10.53-6.9-26.23-17.2-34-22.5-5.87-4-23.93-15.81-39.77-15.93A40.67,40.67,0,0,0,54,76.79c-8.16,6.7-10.32,17.86-11.76,22.86s-2.62,1.21-2.44-5.11C40,87.6,46.5,73.28,54.24,66.63c8.85-7.62,19.9-11.46,29-11.56,19-.14,36,15.38,41.22,18.95,6.28,4.29,28.88,19.49,35.75,24.82C165.45,102.92,158.42,108.47,154.31,105.78Z"/><path class="cls-164" d="M154.41,105.58C144,98.76,128.18,88.32,120.5,83.12c-5.84-4-24.11-16-39.93-16.07A40.8,40.8,0,0,0,54,76.62c-8,6.61-10.3,17.73-11.74,22.82s-2.58,1.31-2.41-4.94c.18-6.92,6.64-21.11,14.3-27.76,8.73-7.58,19.89-11.52,29-11.63,18.89-.17,36.09,15.42,41.4,19,6.29,4.28,28.72,19.39,35.59,24.7C165.4,102.89,158.48,108.23,154.41,105.58Z"/><path class="cls-165" d="M154.5,105.38C144.17,98.64,128.28,88.06,120.71,83c-5.79-3.91-24.29-16.2-40.09-16.22a40.91,40.91,0,0,0-26.57,9.71C46.22,83,43.75,94,42.32,99.22s-2.54,1.41-2.37-4.77c.17-6.89,6.61-21,14.19-27.59,8.61-7.56,19.87-11.58,29-11.71C102,55,119.32,70.62,124.71,74.26c6.31,4.26,28.58,19.3,35.44,24.58C165.35,102.87,158.55,108,154.5,105.38Z"/><path class="cls-166" d="M154.6,105.17c-10.23-6.65-26.23-17.36-33.67-22.38-5.75-3.86-24.48-16.39-40.26-16.35a41,41,0,0,0-26.62,9.84C46.39,82.71,43.77,93.73,42.34,99s-2.5,1.52-2.34-4.59c.17-6.87,6.58-20.8,14.08-27.44,8.5-7.52,19.86-11.63,29-11.77,18.73-.22,36.27,15.5,41.74,19.18,6.32,4.25,28.44,19.2,35.3,24.47C165.3,102.84,158.61,107.77,154.6,105.17Z"/><path class="cls-167" d="M154.69,105c-10.12-6.56-26.22-17.42-33.55-22.34-5.7-3.83-24.65-16.58-40.42-16.5a41.23,41.23,0,0,0-26.67,10c-7.49,6.35-10.26,17.33-11.69,22.68s-2.46,1.62-2.3-4.41c.16-6.85,6.55-20.66,14-27.29,8.38-7.49,19.84-11.68,29-11.84C101.69,55,119.39,70.78,125,74.5c6.34,4.23,28.3,19.1,35.15,24.35C165.25,102.81,158.68,107.54,154.69,105Z"/><path class="cls-168" d="M154.79,104.77c-10-6.48-26.22-17.48-33.44-22.3-5.66-3.79-24.83-16.78-40.57-16.64a41.32,41.32,0,0,0-26.73,10.1c-7.32,6.26-10.24,17.19-11.67,22.63s-2.42,1.73-2.27-4.23C40.27,87.5,46.64,73.82,54,67.19c8.26-7.45,19.82-11.73,29-11.9,18.57-.27,36.44,15.58,42.09,19.33,6.35,4.22,28.14,19,35,24.23C165.2,102.79,158.74,107.31,154.79,104.77Z"/><path class="cls-169" d="M154.89,104.56C145,98.17,128.66,87,121.57,82.31c-5.62-3.75-25-17-40.74-16.79A41.46,41.46,0,0,0,54.05,75.76C46.9,81.93,43.83,92.82,42.4,98.34s-2.38,1.84-2.23-4c.15-6.81,6.49-20.36,13.76-27,8.14-7.42,19.8-11.81,29-12C101.43,55,119.47,71,125.2,74.74c6.37,4.2,28,18.91,34.84,24.12C165.15,102.76,158.81,107.08,154.89,104.56Z"/><path class="cls-170" d="M155,104.36c-9.82-6.31-26.22-17.58-33.2-22.22-5.57-3.7-25.19-17.16-40.9-16.93A41.57,41.57,0,0,0,54.06,75.59c-7,6.08-10.21,16.92-11.64,22.54s-2.34,1.93-2.19-3.89c.14-6.79,6.46-20.2,13.65-26.82,8-7.39,19.78-11.87,29-12.05C101.3,55,119.5,71,125.32,74.86c6.38,4.19,27.86,18.81,34.69,24C165.1,102.73,158.87,106.85,155,104.36Z"/><path class="cls-171" d="M155.08,104.16C145.36,97.93,128.86,86.52,122,82c-5.53-3.66-25.37-17.36-41.06-17.07A41.69,41.69,0,0,0,54.06,75.42c-6.83,6-10.19,16.78-11.63,22.49s-2.28,2-2.15-3.71c.14-6.77,6.44-20.06,13.55-26.67,7.91-7.35,19.76-11.92,29-12.11,18.33-.39,36.7,15.7,42.6,19.56,6.4,4.17,27.71,18.71,34.54,23.88C165,102.71,158.94,106.62,155.08,104.16Z"/><path class="cls-172" d="M155.17,104c-9.62-6.14-26.22-17.69-33-22.13C116.72,78.2,96.66,64.26,81,64.6A41.8,41.8,0,0,0,54.06,75.25C47.4,81.14,43.89,91.9,42.45,97.69s-2.24,2.15-2.11-3.53c.13-6.75,6.4-19.91,13.43-26.51,7.8-7.33,19.75-12,29-12.19C101,55.05,119.58,71.2,125.57,75.1,132,79.26,153.13,93.72,160,98.86,165,102.68,159,106.39,155.17,104Z"/><path class="cls-173" d="M155.27,103.75c-9.52-6-26.22-17.74-32.85-22.09C117,78.08,96.69,63.91,81,64.3a41.9,41.9,0,0,0-27,10.78c-6.5,5.8-10.15,16.51-11.59,22.39s-2.2,2.25-2.08-3.35c.13-6.73,6.38-19.76,13.33-26.36,7.68-7.29,19.73-12,29-12.26,18.17-.43,36.87,15.79,43,19.72,6.42,4.15,27.42,18.52,34.24,23.65C164.94,102.65,159.07,106.16,155.27,103.75Z"/><path class="cls-174" d="M155.36,103.55c-9.41-6-26.21-17.8-32.73-22.06C117.24,78,96.72,63.55,81.09,64a42.08,42.08,0,0,0-27,10.91c-6.33,5.71-10.13,16.39-11.57,22.35s-2.16,2.36-2-3.17c.13-6.71,6.35-19.61,13.22-26.21,7.56-7.25,19.71-12.09,29-12.32,18.09-.46,37,15.82,43.12,19.79,6.44,4.13,27.27,18.42,34.09,23.53C164.89,102.63,159.13,105.92,155.36,103.55Z"/><path class="cls-175" d="M155.46,103.34c-9.32-5.88-26.22-17.84-32.61-22-5.36-3.49-26.09-18.14-41.7-17.64a42.08,42.08,0,0,0-27.08,11C47.89,80.35,44,91,42.51,97s-2.12,2.46-2-3c.13-6.68,6.32-19.45,13.12-26,7.44-7.22,19.69-12.15,29-12.4,18-.48,37,15.87,43.29,19.86,6.46,4.13,27.13,18.33,33.94,23.42C164.84,102.6,159.2,105.69,155.46,103.34Z"/><path class="cls-176" d="M155.56,103.14c-9.22-5.8-26.22-17.9-32.5-22-5.31-3.45-26.27-18.33-41.86-17.79A42.21,42.21,0,0,0,54.07,74.56c-6,5.52-10.1,16.11-11.54,22.26s-2.08,2.56-2-2.83c.12-6.66,6.29-19.3,13-25.89,7.32-7.19,19.68-12.18,29-12.46,17.93-.48,37.13,15.9,43.47,19.93s27,18.24,33.78,23.31C164.79,102.58,159.26,105.46,155.56,103.14Z"/><path class="cls-177" d="M155.65,102.94c-9.11-5.72-26.22-18-32.38-21.94-5.26-3.4-26.45-18.52-42-17.93A42.37,42.37,0,0,0,54.07,74.39C48.22,79.81,44,90.37,42.55,96.6s-2,2.67-1.94-2.65c.12-6.64,6.27-19.15,12.91-25.74,7.2-7.15,19.66-12.23,29-12.53,17.85-.5,37.21,15.95,43.64,20S153,93.83,159.82,98.88C164.74,102.55,159.33,105.23,155.65,102.94Z"/><path class="cls-178" d="M155.75,102.73c-9-5.62-26.22-18-32.26-21.89-5.23-3.36-26.63-18.72-42.19-18.07A42.4,42.4,0,0,0,54.07,74.22C48.38,79.54,44,90.06,42.57,96.38s-2,2.77-1.9-2.47c.11-6.63,6.24-19,12.79-25.59,7.09-7.11,19.65-12.28,29-12.6,17.77-.52,37.3,16,43.81,20.09s26.69,18,33.49,23.07C164.69,102.52,159.39,105,155.75,102.73Z"/><path class="cls-179" d="M155.84,102.53C146.93,97,129.63,84.47,123.7,80.68c-5.18-3.32-26.81-18.91-42.34-18.22A42.55,42.55,0,0,0,54.07,74.05c-5.53,5.22-10,15.71-11.48,22.11s-2,2.88-1.86-2.29c.1-6.61,6.2-18.86,12.68-25.43,7-7.08,19.63-12.35,29-12.67,17.69-.55,37.39,16,44,20.16S153,93.88,159.76,98.88C164.64,102.5,159.46,104.77,155.84,102.53Z"/><path class="cls-180" d="M155.94,102.33c-8.81-5.46-26.22-18.11-32-21.81-5.14-3.28-27-19.11-42.5-18.36A42.49,42.49,0,0,0,54.08,73.88c-5.37,5.12-10,15.57-11.47,22.06s-1.92,3-1.83-2.12c.1-6.58,6.18-18.7,12.58-25.27,6.86-7,19.61-12.4,29-12.74,17.6-.58,37.46,16.08,44.15,20.24,6.52,4.06,26.39,17.85,33.18,22.84C164.59,102.47,159.52,104.54,155.94,102.33Z"/><path class="cls-181" d="M156,102.12c-8.7-5.37-26.21-18.16-31.9-21.77C119,77.12,97,61.05,81.46,61.85A42.57,42.57,0,0,0,54.08,73.71c-5.21,5-10,15.43-11.45,22s-1.88,3.09-1.79-1.94c.09-6.56,6.15-18.55,12.47-25.12,6.74-7,19.59-12.45,29-12.81,17.52-.6,37.55,16.12,44.32,20.32,6.53,4,26.25,17.75,33,22.72C164.53,102.44,159.59,104.31,156,102.12Z"/><path class="cls-182" d="M156.13,101.92c-8.61-5.29-26.22-18.22-31.79-21.73C119.29,77,97,60.7,81.51,61.55a42.64,42.64,0,0,0-27.43,12c-5,4.93-10,15.31-11.43,22s-1.84,3.19-1.76-1.77c.09-6.54,6.13-18.4,12.37-25,6.62-7,19.57-12.51,29-12.88,17.44-.63,37.63,16.16,44.49,20.39,6.55,4,26.11,17.66,32.88,22.6C164.48,102.42,159.65,104.08,156.13,101.92Z"/><path class="cls-183" d="M156.22,101.72C147.72,96.51,130,83.45,124.56,80c-5-3.14-27.54-19.69-43-18.79A42.74,42.74,0,0,0,54.08,73.36c-4.9,4.83-10,15.17-11.41,21.93S40.87,98.58,41,93.7c.08-6.52,6.1-18.25,12.26-24.81,6.51-6.94,19.55-12.56,29-13,17.36-.65,37.72,16.21,44.67,20.47,6.56,4,26,17.56,32.73,22.49C164.43,102.39,159.72,103.85,156.22,101.72Z"/><path class="cls-184" d="M156.32,101.51c-8.4-5.11-26.22-18.32-31.55-21.64-5-3.1-27.71-19.89-43.15-18.93A42.69,42.69,0,0,0,54.08,73.19c-4.74,4.73-10,15-11.39,21.88s-1.76,3.4-1.69-1.41c.08-6.5,6.08-18.1,12.15-24.66,6.4-6.9,19.54-12.62,29.05-13C99.48,55.31,120,72.24,127,76.53c6.57,4,25.81,17.46,32.58,22.37C164.38,102.37,159.78,103.61,156.32,101.51Z"/><path class="cls-185" d="M156.42,101.31c-8.3-5-26.22-18.37-31.44-21.61-4.92-3-27.89-20.08-43.31-19.07A42.75,42.75,0,0,0,54.09,73c-4.59,4.62-10,14.9-11.38,21.83S41,98.36,41.06,93.61c.07-6.47,6-17.94,12-24.5C59.38,62.25,72.62,56.44,82.15,56c17.2-.71,37.89,16.29,45,20.62,6.59,4,25.67,17.36,32.43,22.25C164.33,102.34,159.85,103.38,156.42,101.31Z"/><path class="cls-186" d="M156.51,101.11c-8.2-5-26.22-18.43-31.31-21.57-4.89-3-28.08-20.27-43.48-19.22A42.76,42.76,0,0,0,54.09,72.85c-4.43,4.52-9.93,14.76-11.36,21.78s-1.67,3.61-1.62-1.06c.07-6.45,6-17.79,11.94-24.34,6.17-6.84,19.5-12.73,29.05-13.16,17.12-.73,38,16.34,45.18,20.7,6.6,4,25.52,17.27,32.28,22.13C164.28,102.31,159.91,103.15,156.51,101.11Z"/><path class="cls-187" d="M156.61,100.9c-8.1-4.86-26.22-18.47-31.2-21.52S97.16,58.91,81.78,60A42.69,42.69,0,0,0,54.09,72.68c-4.28,4.42-9.91,14.63-11.34,21.73s-1.63,3.72-1.58-.88c.06-6.44,6-17.64,11.83-24.19,6-6.8,19.49-12.78,29.05-13.22,17-.76,38.05,16.38,45.36,20.77,6.61,4,25.37,17.17,32.12,22C164.23,102.29,160,102.92,156.61,100.9Z"/><path class="cls-188" d="M156.7,100.7c-8-4.78-26.22-18.52-31.08-21.48S97.19,58.55,81.83,59.71a42.76,42.76,0,0,0-27.74,12.8C50,76.82,44.2,87,42.77,94.19s-1.59,3.82-1.55-.7c.06-6.42,6-17.48,11.73-24C58.88,62.69,72.42,56.62,82,56.16,99,55.38,120.13,72.6,127.53,77c6.62,4,25.23,17.07,32,21.9C164.18,102.26,160,102.69,156.7,100.7Z"/><path class="cls-189" d="M156.8,100.5c-7.9-4.69-26.23-18.57-31-21.45s-28.61-20.85-44-19.64A42.7,42.7,0,0,0,54.09,72.33c-4,4.22-9.87,14.37-11.31,21.65s-1.54,3.92-1.5-.53c0-6.4,6-17.32,11.62-23.88C58.73,62.85,72.35,56.67,82,56.2c16.88-.8,38.22,16.48,45.7,20.93,6.64,4,25.08,17,31.83,21.78C164.13,102.23,160.11,102.46,156.8,100.5Z"/><path class="cls-190" d="M156.89,100.29c-7.79-4.6-26.22-18.62-30.84-21.4s-28.79-21-44.12-19.79c-9,.75-19.7,4.31-27.83,13.06-3.82,4.11-9.86,14.23-11.3,21.6s-1.5,4-1.46-.35c0-6.38,5.92-17.18,11.51-23.73s19.43-13,29.05-13.43c16.8-.84,38.3,16.52,45.87,21,6.65,4,24.94,16.88,31.68,21.67C164.08,102.21,160.17,102.23,156.89,100.29Z"/><path class="cls-191" d="M157,100.09c-7.69-4.52-26.22-18.67-30.73-21.36-4.67-2.79-29-21.25-44.27-19.93C73,59.57,62.2,63.15,54.1,72c-3.67,4-9.84,14.09-11.28,21.55s-1.46,4.13-1.43-.18c0-6.35,5.9-17,11.4-23.57s19.42-13,29.06-13.5c16.72-.86,38.39,16.56,46.05,21.08,6.66,3.94,24.79,16.78,31.52,21.55C164,102.18,160.24,102,157,100.09Z"/><path class="cls-151" d="M157.08,99.89c-7.58-4.44-26.22-18.73-30.6-21.32C121.84,75.82,97.33,57.13,82,58.49c-9,.8-19.88,4.39-27.94,13.33-3.52,3.9-9.82,14-11.26,21.5s-1.42,4.24-1.39,0c0-6.33,5.87-16.87,11.29-23.42S72.14,56.85,81.8,56.33c16.64-.88,38.48,16.61,46.22,21.16,6.68,3.92,24.64,16.69,31.37,21.43C164,102.15,160.3,101.77,157.08,99.89Z"/></g><g class="cls-192"><path class="cls-6" d="M151.73,101.27c-15,5.52-48.5,35.27-57.09,38.22-5.06,1.74,4.64,4,15.06-1.53s34-26.46,42.27-30.84C161.55,102,163.09,97.1,151.73,101.27Z"/><path class="cls-193" d="M151.87,101.29c-14.46,5.37-48.1,34.94-56.59,37.93-5.08,1.81,4.27,4,14.37-1.32s34.41-26.66,42.47-31C161.44,102,162.87,97.19,151.87,101.29Z"/><path class="cls-194" d="M152,101.32c-13.9,5.21-47.71,34.57-56.07,37.62-5.12,1.87,3.88,4.07,13.67-1.1s34.81-26.86,42.66-31.08C161.32,101.9,162.65,97.28,152,101.32Z"/><path class="cls-195" d="M152.14,101.34c-13.33,5.1-47.32,34.23-55.56,37.33-5.15,1.93,3.5,4.11,13-.89s35.2-27.06,42.85-31.2C161.21,101.83,162.44,97.4,152.14,101.34Z"/><path class="cls-196" d="M152.28,101.36c-12.78,5-46.93,33.89-55,37-5.19,2,3.12,4.16,12.28-.67s35.6-27.26,43.05-31.32C161.1,101.77,162.23,97.5,152.28,101.36Z"/><path class="cls-197" d="M152.41,101.38c-12.21,4.82-46.53,33.55-54.54,36.74-5.21,2.07,2.74,4.2,11.59-.45s36-27.47,43.25-31.45C161,101.7,162,97.6,152.41,101.38Z"/><path class="cls-198" d="M152.55,101.41c-11.65,4.67-46.14,33.2-54,36.43-5.25,2.14,2.36,4.25,10.89-.23S145.8,109.94,152.86,106C160.88,101.63,161.79,97.7,152.55,101.41Z"/><path class="cls-199" d="M152.69,101.43C141.59,106,107,134.3,99.17,137.56c-5.28,2.22,2,4.3,10.2,0s36.78-27.87,43.64-31.69C160.77,101.56,161.58,97.8,152.69,101.43Z"/><path class="cls-200" d="M152.82,101.45c-10.53,4.39-45.34,32.54-53,35.84-5.31,2.29,1.6,4.34,9.51.2s37.17-28.07,43.83-31.8C160.66,101.5,161.36,97.9,152.82,101.45Z"/><path class="cls-201" d="M153,101.47c-10,4.25-44.95,32.2-52.5,35.54-5.34,2.37,1.22,4.39,8.81.42s37.57-28.27,44-31.92C160.55,101.43,161.15,98,153,101.47Z"/><path class="cls-202" d="M153.1,101.5c-9.43,4.09-44.56,31.86-52,35.24-5.38,2.43.83,4.43,8.11.63s38-28.47,44.23-32C160.44,101.36,160.93,98.09,153.1,101.5Z"/><path class="cls-203" d="M153.23,101.52c-8.86,4-44.15,31.54-51.48,34.94-5.4,2.52.46,4.48,7.43.86s38.35-28.68,44.42-32.17C160.33,101.3,160.71,98.19,153.23,101.52Z"/><path class="cls-204" d="M153.37,101.54c-8.31,3.8-43.76,31.21-51,34.65-5.43,2.59.07,4.52,6.73,1.07s38.75-28.88,44.62-32.29C160.22,101.23,160.5,98.28,153.37,101.54Z"/><path class="cls-205" d="M153.51,101.56c-7.76,3.65-43.36,30.88-50.46,34.35-5.46,2.67-.31,4.57,6,1.29s39.15-29.08,44.82-32.41C160.11,101.16,160.28,98.38,153.51,101.56Z"/><path class="cls-206" d="M153.64,101.59c-7.19,3.49-42.95,30.55-49.95,34-5.49,2.74-.68,4.61,5.34,1.5s39.54-29.28,45-32.53C160,101.09,160.06,98.47,153.64,101.59Z"/><path class="cls-207" d="M153.78,101.61c-6.64,3.34-42.56,30.22-49.44,33.75-5.52,2.83-1.07,4.66,4.65,1.72s39.93-29.48,45.2-32.65C159.89,101,159.84,98.56,153.78,101.61Z"/><path class="cls-208" d="M153.92,101.63c-6.09,3.19-42.16,29.9-48.93,33.45-5.55,2.91-1.45,4.71,4,1.94s40.33-29.68,45.4-32.77C159.78,101,159.62,98.65,153.92,101.63Z"/><path class="cls-209" d="M154.05,101.65c-5.53,3-41.75,29.58-48.42,33.16-5.57,3-1.82,4.75,3.26,2.15s40.72-29.88,45.6-32.89C159.67,100.89,159.4,98.73,154.05,101.65Z"/><path class="cls-210" d="M154.19,101.68c-5,2.86-41.35,29.25-47.91,32.85-5.6,3.08-2.21,4.81,2.56,2.38s41.12-30.09,45.8-33C159.56,100.83,159.18,98.82,154.19,101.68Z"/><path class="cls-211" d="M154.33,101.7c-4.44,2.7-41,28.93-47.4,32.56-5.62,3.16-2.59,4.85,1.87,2.59s41.51-30.29,46-33.14C159.45,100.76,159,98.89,154.33,101.7Z"/><path class="cls-212" d="M154.47,101.72c-3.9,2.53-40.55,28.61-46.89,32.26-5.65,3.25-3,4.9,1.17,2.81s41.9-30.49,46.18-33.26S158.72,99,154.47,101.72Z"/><path class="cls-151" d="M154.6,101.74c-3.36,2.35-40.14,28.3-46.38,32-5.67,3.33-3.35,4.94.48,3S151,106,155.08,103.35,158.48,99,154.6,101.74Z"/></g><path class="cls-213" d="M156.64,100l-.14-.09c-34.29,21.38-50,39.23-71.71,40.56A40.94,40.94,0,0,1,55.6,70.81,39.21,39.21,0,0,0,43.14,100a41.41,41.41,0,0,0,41.29,41.15C106.24,139.81,122.15,121.79,156.64,100Z"/><text/></g><path class="cls-214" d="M79.19,38.76a4,4,0,0,1,3.44,1.59l-1.49,1.39a2.16,2.16,0,0,0-1.84-.94,2.54,2.54,0,0,0,0,5.06,2.21,2.21,0,0,0,1.84-.94l1.49,1.39a4,4,0,0,1-3.44,1.58,4.57,4.57,0,1,1,0-9.13Z"/><path class="cls-214" d="M89.34,46.78a3.59,3.59,0,0,1-2.75,1.11,2.9,2.9,0,0,1-3-2.88,2.76,2.76,0,0,1,3-2.77,3.5,3.5,0,0,1,2.75,1.06V42.1c0-.89-.75-1.46-1.91-1.46a3.65,3.65,0,0,0-2.53,1L84,40.13a5.73,5.73,0,0,1,3.8-1.37c2,0,3.8.8,3.8,3.3v5.62H89.34Zm0-2.27a2.27,2.27,0,0,0-1.83-.76c-.9,0-1.64.49-1.64,1.32s.74,1.28,1.64,1.28a2.3,2.3,0,0,0,1.83-.76Z"/><path class="cls-214" d="M94.35,45.52V41H92.91V39h1.44V36.6h2.3V39h1.76v2H96.65V44.9c0,.54.29,1,.79,1a1.3,1.3,0,0,0,.8-.25l.48,1.73a2.85,2.85,0,0,1-1.91.55A2.16,2.16,0,0,1,94.35,45.52Z"/><path class="cls-214" d="M105.2,46.78a3.59,3.59,0,0,1-2.75,1.11,2.9,2.9,0,0,1-3-2.88,2.76,2.76,0,0,1,3-2.77,3.52,3.52,0,0,1,2.75,1.06V42.1c0-.89-.75-1.46-1.91-1.46a3.69,3.69,0,0,0-2.54,1l-.86-1.53a5.73,5.73,0,0,1,3.8-1.37c2,0,3.8.8,3.8,3.3v5.62H105.2Zm0-2.27a2.27,2.27,0,0,0-1.83-.76c-.91,0-1.64.49-1.64,1.32s.73,1.28,1.64,1.28a2.3,2.3,0,0,0,1.83-.76Z"/><path class="cls-214" d="M120.54,42.19c0-.81-.36-1.39-1.3-1.39a2.31,2.31,0,0,0-1.8,1v5.87h-2.3V42.19c0-.81-.36-1.39-1.3-1.39a2.33,2.33,0,0,0-1.8,1v5.85h-2.29V39H112v1.13a3.8,3.8,0,0,1,2.84-1.35,2.32,2.32,0,0,1,2.42,1.59,3.68,3.68,0,0,1,3-1.59,2.32,2.32,0,0,1,2.55,2.63v6.29h-2.3Z"/><path class="cls-214" d="M124.53,43.32a4.6,4.6,0,1,1,4.59,4.57A4.41,4.41,0,0,1,124.53,43.32Zm6.83,0a2.24,2.24,0,1,0-4.45,0,2.24,2.24,0,1,0,4.45,0Z"/><path class="cls-214" d="M141.29,46.58a4,4,0,0,1-3.06,1.31,2.49,2.49,0,0,1-2.81-2.73V39h2.29v5.28a1.4,1.4,0,0,0,1.6,1.6,2.56,2.56,0,0,0,2-1V39h2.29v8.7h-2.29Z"/><path class="cls-214" d="M151.71,42.42c0-1.21-.63-1.62-1.6-1.62a2.46,2.46,0,0,0-2,1v5.85h-2.29V39h2.29v1.13a4,4,0,0,1,3-1.35A2.54,2.54,0,0,1,154,41.54v6.14h-2.29Z"/><path class="cls-214" d="M156.71,45.52V41h-1.43V39h1.43V36.6H159V39h1.76v2H159V44.9c0,.54.29,1,.79,1a1.27,1.27,0,0,0,.79-.25l.49,1.73a2.85,2.85,0,0,1-1.91.55A2.17,2.17,0,0,1,156.71,45.52Z"/><text class="cls-215" transform="translate(116.4 59.05)">geospatial</text></g></g></svg>